<?xml version="1.0" standalone="no"?>
<!DOCTYPE svg PUBLIC "-//W3C//DTD SVG 20010904//EN"
 "http://www.w3.org/TR/2001/REC-SVG-20010904/DTD/svg10.dtd">
<svg version="1.0" xmlns="http://www.w3.org/2000/svg"
 width="989.000000pt" height="1280.000000pt" viewBox="0 0 989.000000 1280.000000"
 preserveAspectRatio="xMidYMid meet">
<g transform="translate(0.000000,1280.000000) scale(0.100000,-0.100000)"
fill="#ffffff" stroke="none">
<path d="M4624 12589 c-84 -26 -234 -127 -319 -213 -100 -101 -122 -149 -205
-446 -32 -113 -60 -180 -106 -250 -15 -22 -22 -44 -18 -53 3 -10 2 -17 -4 -17
-6 0 -24 -29 -41 -65 -30 -65 -30 -67 -26 -201 l4 -135 -25 -9 c-13 -5 -24
-14 -24 -20 0 -13 17 -13 25 0 10 16 128 2 142 -17 16 -20 27 -96 19 -126 -10
-41 -96 -189 -161 -277 -93 -126 -111 -169 -119 -275 -8 -111 -10 -121 -25
-166 -7 -21 -11 -86 -10 -155 0 -65 -2 -149 -6 -186 -5 -52 -3 -75 9 -99 9
-18 16 -38 16 -45 0 -7 18 -35 40 -63 52 -66 68 -108 80 -211 5 -47 14 -105
19 -130 6 -25 10 -69 11 -98 0 -55 22 -112 43 -112 11 0 44 38 93 105 14 19
15 19 45 -17 17 -21 37 -38 45 -38 20 0 30 -24 84 -200 106 -343 114 -488 38
-640 -18 -36 -40 -66 -54 -72 -13 -6 -24 -17 -24 -23 0 -16 -79 -89 -117 -109
-17 -8 -94 -31 -173 -51 -88 -22 -171 -50 -218 -74 -238 -120 -420 -345 -488
-606 -47 -177 -45 -529 3 -765 17 -86 24 -96 63 -105 26 -6 32 -14 49 -73 11
-37 24 -87 30 -111 6 -28 19 -52 36 -65 23 -18 33 -46 70 -197 24 -96 60 -265
80 -374 48 -264 72 -368 143 -625 75 -268 81 -296 92 -400 9 -96 -2 -278 -27
-415 -8 -49 -42 -178 -73 -286 -104 -353 -132 -539 -111 -745 19 -185 44 -293
238 -999 l66 -240 -12 -68 c-14 -83 -53 -177 -131 -317 -32 -58 -66 -127 -75
-155 -24 -71 -30 -163 -15 -226 8 -30 14 -75 14 -101 1 -39 7 -53 35 -82 18
-19 50 -38 69 -43 32 -7 38 -15 54 -57 9 -27 35 -74 57 -106 56 -80 76 -136
115 -331 39 -192 79 -290 160 -391 38 -47 52 -58 76 -58 20 0 33 7 41 21 l11
21 26 -24 c25 -22 34 -24 119 -23 56 1 98 7 107 14 10 8 23 10 38 5 13 -5 41
-9 63 -11 22 -1 63 -5 92 -9 47 -5 55 -3 78 20 14 14 25 34 25 45 0 11 -22 45
-50 76 -34 40 -56 77 -71 123 -12 36 -42 108 -66 161 -50 108 -81 208 -112
363 -12 59 -40 160 -62 225 -35 101 -42 136 -49 243 -5 74 -19 166 -34 225
-14 55 -31 140 -38 188 -12 86 -11 92 17 205 23 93 47 152 117 292 48 96 110
205 137 241 104 136 309 366 529 591 261 268 355 373 457 513 134 184 214 329
293 531 23 60 66 141 109 206 78 118 116 191 135 262 11 40 8 88 -16 334 -32
330 -47 430 -117 782 -91 462 -140 690 -176 813 -20 67 -40 139 -46 159 -16
54 1 82 73 118 33 17 60 33 60 37 0 18 -186 250 -279 347 -146 152 -155 181
-129 392 14 115 3 218 -44 398 -34 133 -34 143 19 309 41 132 79 207 110 218
16 5 37 24 48 42 11 17 35 41 52 52 18 11 37 33 42 49 6 15 27 50 46 77 19 27
35 53 35 57 0 5 9 17 20 27 13 11 20 31 20 52 0 42 21 84 71 144 22 26 39 56
39 68 0 11 12 46 26 78 20 44 27 76 29 141 2 46 6 86 9 90 3 3 13 -3 20 -14
14 -18 15 -18 21 9 12 45 -2 121 -31 182 -15 30 -25 57 -23 59 2 2 33 18 68
36 36 18 99 56 142 86 42 30 96 61 120 69 64 23 127 62 134 85 3 10 1 29 -5
41 -16 29 -57 22 -166 -31 -88 -43 -157 -60 -168 -42 -6 10 0 33 73 267 50
159 60 206 61 266 0 34 -4 49 -16 53 -25 10 -32 0 -55 -77 -26 -85 -106 -257
-120 -257 -14 0 -11 25 12 82 30 76 79 248 79 279 0 15 -6 32 -14 38 -20 17
-41 -7 -61 -71 -28 -84 -114 -280 -132 -300 -9 -10 -20 -15 -24 -11 -4 5 -3
63 2 130 10 133 3 173 -30 173 -13 0 -27 12 -36 31 -9 17 -44 63 -78 103 -131
152 -131 151 -117 204 7 26 16 90 21 142 31 351 30 327 8 429 -11 53 -25 128
-30 166 -10 65 -50 256 -85 400 -8 33 -21 70 -29 82 -8 12 -15 31 -15 41 0 45
-54 180 -91 229 -44 59 -97 93 -184 119 -44 13 -73 30 -110 65 -27 26 -64 54
-80 62 -82 41 -315 50 -421 16z m-643 -1212 c-8 -8 -11 -7 -11 4 0 20 13 34
18 19 3 -7 -1 -17 -7 -23z m99 -44 c0 -22 -17 -50 -25 -42 -5 6 14 59 22 59 1
0 3 -8 3 -17z m-83 -505 c-38 -70 -86 -163 -112 -219 -20 -46 -84 -121 -95
-114 -20 13 72 211 111 238 10 8 42 46 69 85 28 40 53 72 56 72 3 0 -10 -28
-29 -62z m1471 -558 c26 -35 28 -53 6 -48 -22 4 -58 53 -50 67 11 17 21 13 44
-19z m-1304 -436 c16 -41 -5 -131 -34 -149 -10 -6 -11 8 -6 61 8 80 14 104 26
104 4 0 11 -7 14 -16z m1487 -917 c-8 -8 -11 -7 -11 4 0 9 3 19 7 23 4 4 9 2
11 -4 3 -7 -1 -17 -7 -23z m-11 -62 c7 -8 18 -15 26 -15 23 0 24 -16 2 -59
-21 -43 -55 -74 -70 -65 -5 3 -6 31 -3 62 11 95 19 108 45 77z m-20 -180 c-16
-19 -30 -19 -30 0 0 17 33 38 38 24 2 -5 -2 -16 -8 -24z m-966 -2478 c607
-1240 595 -1213 641 -1372 41 -140 41 -139 5 -211 -24 -50 -67 -101 -190 -229
-230 -238 -286 -329 -379 -613 -26 -81 -76 -214 -110 -297 -128 -306 -333
-677 -359 -650 -2 2 -3 201 -3 442 2 570 9 641 106 1068 13 61 29 162 34 225
5 66 22 166 39 235 59 230 60 250 51 1105 l-4 385 25 35 c32 45 41 51 57 39 7
-6 46 -79 87 -162z"/>
</g>
</svg>
