<svg width="560" height="504" viewBox="0 0 560 504" fill="none" xmlns="http://www.w3.org/2000/svg">
<path fill-rule="evenodd" clip-rule="evenodd" d="M118.443 0H422.333V155.939H470.167L470.167 239.158H560V503.981H0V109.663H118.443L118.443 0Z" fill="#2A2A2A"/>
<path d="M422.333 0V234.889H415.333V15.5556H133.778V123.667H17.8889V488.444H550.667V252H462.778V155.556H470.556V238.778H560V504H0V108.889H118.222V0H422.333Z" fill="black"/>
<circle cx="160.881" cy="158.316" r="18.4286" transform="rotate(137.663 160.881 158.316)" fill="url(#paint0_linear_82_1090)"/>
<rect x="195.562" y="140.346" width="19.484" height="12.9894" rx="6.49468" transform="rotate(79.6555 195.562 140.346)" fill="#D9D9D9"/>
<rect x="141.396" y="134.306" width="19.484" height="12.9894" rx="6.49468" transform="rotate(109.656 141.396 134.306)" fill="#D9D9D9"/>
<rect x="138.503" y="172.713" width="19.484" height="12.9893" rx="6.49468" transform="rotate(49.6555 138.503 172.713)" fill="#D9D9D9"/>
<path d="M159.12 165V152.736H159.072L156 154.152L155.376 151.344L159.696 149.4H162.792V165H159.12Z" fill="white"/>
<circle cx="271.468" cy="169.076" r="21.0533" fill="url(#paint1_linear_82_1090)"/>
<rect x="284.53" y="210.864" width="22.259" height="14.8393" rx="7.41967" transform="rotate(-180 284.53 210.864)" fill="#D9D9D9"/>
<rect x="302.43" y="151.228" width="22.259" height="14.8393" rx="7.41967" transform="rotate(-150 302.43 151.228)" fill="#D9D9D9"/>
<rect x="259.86" y="140.099" width="22.259" height="14.8393" rx="7.41967" transform="rotate(150 259.86 140.099)" fill="#D9D9D9"/>
<path d="M277.948 177H266.044V174.744L268.204 172.992C270.284 171.264 271.732 169.952 272.548 169.056C273.364 168.144 273.78 167.288 273.796 166.488C273.796 165.8 273.572 165.24 273.124 164.808C272.676 164.376 271.988 164.16 271.06 164.16C269.876 164.16 268.652 164.64 267.388 165.6L266.212 162.936C267.732 161.72 269.612 161.112 271.852 161.112C273.628 161.112 275.028 161.568 276.052 162.48C277.092 163.392 277.612 164.608 277.612 166.128C277.612 167.296 277.236 168.392 276.484 169.416C275.748 170.44 274.692 171.512 273.316 172.632L271.684 173.856V173.904H277.948V177Z" fill="white"/>
<circle cx="204.412" cy="246.89" r="21.0533" fill="url(#paint2_linear_82_1090)"/>
<rect x="214.984" y="288.678" width="22.259" height="14.8393" rx="7.41967" transform="rotate(-180 214.984 288.678)" fill="#D9D9D9"/>
<rect x="235.375" y="229.042" width="22.259" height="14.8393" rx="7.41967" transform="rotate(-150 235.375 229.042)" fill="#D9D9D9"/>
<rect x="192.804" y="217.912" width="22.259" height="14.8393" rx="7.41967" transform="rotate(150 192.804 217.912)" fill="#D9D9D9"/>
<path d="M198.442 253.733L199.282 250.901C200.642 251.605 202.002 251.957 203.362 251.957C204.338 251.957 205.082 251.773 205.594 251.405C206.106 251.021 206.362 250.533 206.362 249.941C206.362 249.253 206.042 248.725 205.402 248.357C204.778 247.973 204.026 247.781 203.146 247.781H201.298V245.045H203.098C203.834 245.045 204.482 244.909 205.042 244.637C205.618 244.349 205.906 243.917 205.906 243.341C205.906 242.877 205.698 242.501 205.282 242.213C204.866 241.909 204.258 241.757 203.458 241.757C202.162 241.757 200.93 242.101 199.762 242.789L198.898 240.077C199.474 239.709 200.242 239.405 201.202 239.165C202.178 238.909 203.202 238.781 204.274 238.781C205.986 238.781 207.33 239.157 208.306 239.909C209.298 240.645 209.794 241.581 209.794 242.717C209.794 244.493 208.778 245.709 206.746 246.365V246.413C207.77 246.557 208.626 246.973 209.314 247.661C210.018 248.349 210.37 249.181 210.37 250.157C210.37 251.597 209.754 252.757 208.522 253.637C207.29 254.517 205.65 254.957 203.602 254.957C201.442 254.957 199.722 254.549 198.442 253.733Z" fill="white"/>
<circle cx="349.91" cy="198.307" r="21.0533" transform="rotate(60 349.91 198.307)" fill="url(#paint3_linear_82_1090)"/>
<rect x="319.788" y="232.461" width="22.259" height="14.8393" rx="7.41967" transform="rotate(-120 319.788 232.461)" fill="#D9D9D9"/>
<rect x="380.384" y="218.145" width="22.259" height="14.8393" rx="7.41967" transform="rotate(-90 380.384 218.145)" fill="#D9D9D9"/>
<rect x="368.737" y="175.713" width="22.259" height="14.8393" rx="7.41967" transform="rotate(-150 368.737 175.713)" fill="#D9D9D9"/>
<path d="M354.206 205.317H350.534V201.597H343.094V199.149L349.262 189.717H354.206V198.789H356.174V201.597H354.206V205.317ZM346.718 198.789H350.534V195.261C350.534 194.653 350.566 193.645 350.63 192.237H350.534C350.39 192.509 350.142 192.989 349.79 193.677C349.454 194.365 349.182 194.901 348.974 195.285L346.742 198.741L346.718 198.789Z" fill="white"/>
<circle cx="197.315" cy="329.664" r="21.0533" transform="rotate(-124.334 197.315 329.664)" fill="url(#paint4_linear_82_1090)"/>
<rect x="225.22" y="294.004" width="22.259" height="14.8393" rx="7.41967" transform="rotate(55.6662 225.22 294.004)" fill="#D9D9D9"/>
<rect x="165.88" y="312.859" width="22.259" height="14.8393" rx="7.41967" transform="rotate(85.6662 165.88 312.859)" fill="#D9D9D9"/>
<rect x="180.699" y="354.289" width="22.259" height="14.8393" rx="7.41967" transform="rotate(25.6662 180.699 354.289)" fill="#D9D9D9"/>
<path d="M202.672 321.659V324.755H195.976L195.64 327.011C196.04 326.963 196.44 326.939 196.84 326.939C198.68 326.939 200.184 327.307 201.352 328.043C202.728 328.923 203.416 330.275 203.416 332.099C203.416 333.603 202.768 334.891 201.472 335.963C200.176 337.019 198.448 337.547 196.288 337.547C194.368 337.547 192.768 337.227 191.488 336.587L192.208 333.755C193.36 334.331 194.672 334.619 196.144 334.619C197.008 334.619 197.776 334.427 198.448 334.043C199.12 333.659 199.456 333.083 199.456 332.315C199.456 330.635 197.88 329.795 194.728 329.795C193.976 329.795 193.168 329.851 192.304 329.963L193.36 321.659H202.672Z" fill="white"/>
<circle cx="260.412" cy="355.962" r="21.0533" transform="rotate(-173.267 260.412 355.962)" fill="url(#paint5_linear_82_1090)"/>
<rect x="255.365" y="310.606" width="22.259" height="14.8393" rx="7.41967" transform="rotate(6.73262 255.365 310.606)" fill="#D9D9D9"/>
<rect x="227.57" y="370.056" width="22.259" height="14.8393" rx="7.41967" transform="rotate(36.7326 227.57 370.056)" fill="#D9D9D9"/>
<rect x="268.542" y="386.099" width="22.259" height="14.8393" rx="7.41967" transform="rotate(-23.2674 268.542 386.099)" fill="#D9D9D9"/>
<path d="M264.59 348.637V351.541C264.174 351.493 263.686 351.493 263.126 351.541C261.43 351.637 260.126 352.013 259.214 352.669C258.302 353.325 257.734 354.141 257.51 355.117H257.558C258.47 354.301 259.678 353.893 261.182 353.893C262.654 353.893 263.894 354.357 264.902 355.285C265.926 356.197 266.438 357.461 266.438 359.077C266.438 360.677 265.846 362.021 264.662 363.109C263.478 364.197 262.014 364.741 260.27 364.741C258.11 364.741 256.454 364.085 255.302 362.773C254.166 361.445 253.598 359.797 253.598 357.829C253.598 356.437 253.846 355.149 254.342 353.965C254.838 352.765 255.534 351.765 256.43 350.965C258.142 349.461 260.382 348.677 263.15 348.613C263.486 348.581 263.966 348.589 264.59 348.637ZM260.198 361.933H260.222C260.91 361.933 261.47 361.693 261.902 361.213C262.334 360.717 262.55 360.093 262.55 359.341C262.55 358.557 262.326 357.909 261.878 357.397C261.43 356.869 260.79 356.605 259.958 356.605C259.398 356.605 258.894 356.749 258.446 357.037C258.014 357.309 257.702 357.661 257.51 358.093C257.398 358.301 257.342 358.565 257.342 358.885C257.39 359.733 257.654 360.453 258.134 361.045C258.63 361.637 259.318 361.933 260.198 361.933Z" fill="white"/>
<circle cx="325.04" cy="339.908" r="21.0533" transform="rotate(151.35 325.04 339.908)" fill="url(#paint6_linear_82_1090)"/>
<rect x="292.613" y="307.645" width="22.259" height="14.8393" rx="7.41967" transform="rotate(-28.6504 292.613 307.645)" fill="#D9D9D9"/>
<rect x="305.498" y="368.561" width="22.259" height="14.8393" rx="7.41967" transform="rotate(1.34961 305.498 368.561)" fill="#D9D9D9"/>
<rect x="348.193" y="357.917" width="22.259" height="14.8393" rx="7.41967" transform="rotate(-58.6504 348.193 357.917)" fill="#D9D9D9"/>
<path d="M319.545 331.731H331.401V334.107L324.465 347.331H320.313L327.297 334.875V334.827H319.545V331.731Z" fill="white"/>
<circle cx="404.489" cy="345.908" r="21.0533" transform="rotate(-5.15359 404.489 345.908)" fill="url(#paint7_linear_82_1090)"/>
<rect x="421.252" y="386.354" width="22.259" height="14.8393" rx="7.41967" transform="rotate(174.846 421.252 386.354)" fill="#D9D9D9"/>
<rect x="433.723" y="325.352" width="22.259" height="14.8393" rx="7.41967" transform="rotate(-155.154 433.723 325.352)" fill="#D9D9D9"/>
<rect x="390.325" y="318.091" width="22.259" height="14.8393" rx="7.41967" transform="rotate(144.846 390.325 318.091)" fill="#D9D9D9"/>
<path d="M404.082 337.486H404.106C405.994 337.486 407.394 337.902 408.306 338.734C409.218 339.566 409.674 340.502 409.674 341.542C409.674 342.278 409.466 342.95 409.05 343.558C408.65 344.166 408.074 344.646 407.322 344.998V345.046C408.186 345.35 408.906 345.822 409.482 346.462C410.058 347.102 410.346 347.902 410.346 348.862C410.346 350.302 409.762 351.462 408.594 352.342C407.442 353.222 405.882 353.662 403.914 353.662C401.882 353.662 400.338 353.222 399.282 352.342C398.226 351.446 397.698 350.438 397.698 349.318C397.698 347.526 398.674 346.238 400.626 345.454V345.406C399.042 344.638 398.25 343.494 398.25 341.974C398.25 340.646 398.802 339.566 399.906 338.734C401.01 337.902 402.402 337.486 404.082 337.486ZM404.058 351.022H404.082C404.754 351.022 405.306 350.846 405.738 350.494C406.186 350.142 406.41 349.702 406.41 349.174C406.41 347.926 405.514 347.118 403.722 346.75C403.066 346.862 402.554 347.118 402.186 347.518C401.834 347.902 401.658 348.366 401.658 348.91C401.642 349.47 401.858 349.966 402.306 350.398C402.77 350.814 403.354 351.022 404.058 351.022ZM403.962 340.078H403.938C403.298 340.078 402.794 340.246 402.426 340.582C402.058 340.918 401.874 341.334 401.874 341.83C401.874 342.79 402.682 343.478 404.298 343.894C404.778 343.798 405.186 343.574 405.522 343.222C405.874 342.87 406.05 342.454 406.05 341.974C406.05 341.462 405.874 341.022 405.522 340.654C405.17 340.27 404.65 340.078 403.962 340.078Z" fill="white"/>
<rect x="195.694" y="28.7511" width="26.3398" height="5.56476" rx="2.78238" fill="url(#paint8_radial_82_1090)"/>
<rect x="195.694" y="52.4943" width="26.3398" height="5.56476" rx="2.78238" fill="url(#paint9_radial_82_1090)"/>
<rect x="195.694" y="34.316" width="26.3398" height="18.1782" rx="8" fill="url(#paint10_radial_82_1090)"/>
<path d="M214.985 37.8404C214.985 35.8939 216.563 34.316 218.509 34.316C220.456 34.316 222.034 35.8939 222.034 37.8404V48.9699C222.034 50.9163 220.456 52.4942 218.509 52.4942C216.563 52.4942 214.985 50.9163 214.985 48.9699V37.8404Z" fill="url(#paint11_radial_82_1090)"/>
<rect x="195.694" y="61.0267" width="26.3398" height="5.56476" rx="2.78238" fill="url(#paint12_radial_82_1090)"/>
<rect x="195.694" y="84.7698" width="26.3398" height="5.56476" rx="2.78238" fill="url(#paint13_radial_82_1090)"/>
<rect x="195.694" y="66.5917" width="26.3398" height="18.1782" rx="8" fill="url(#paint14_radial_82_1090)"/>
<path d="M214.985 70.116C214.985 68.1696 216.563 66.5917 218.509 66.5917C220.456 66.5917 222.034 68.1696 222.034 70.116V81.2455C222.034 83.192 220.456 84.7699 218.509 84.7699C216.563 84.7699 214.985 83.192 214.985 81.2455V70.116Z" fill="url(#paint15_radial_82_1090)"/>
<rect x="137.171" y="86.0682" width="26.6181" height="8.0689" rx="4.03445" fill="url(#paint16_radial_82_1090)"/>
<rect x="137.171" y="24.9487" width="26.6181" height="8.0689" rx="4.03445" fill="url(#paint17_radial_82_1090)"/>
<rect x="137.542" y="33.0176" width="26.2471" height="26.6181" rx="8" fill="url(#paint18_radial_82_1090)"/>
<path d="M137.171 36.5419C137.171 34.5955 138.749 33.0176 140.695 33.0176C142.642 33.0176 144.22 34.5955 144.22 36.5419V56.1113C144.22 58.0578 142.642 59.6357 140.695 59.6357C138.749 59.6357 137.171 58.0578 137.171 56.1113V36.5419Z" fill="url(#paint19_radial_82_1090)"/>
<rect x="137.542" y="59.4502" width="26.2471" height="26.6181" rx="8" fill="url(#paint20_radial_82_1090)"/>
<path d="M137.171 62.9745C137.171 61.0281 138.749 59.4502 140.695 59.4502C142.642 59.4502 144.22 61.0281 144.22 62.9745V82.5439C144.22 84.4904 142.642 86.0683 140.695 86.0683C138.749 86.0683 137.171 84.4904 137.171 82.5439V62.9745Z" fill="url(#paint21_radial_82_1090)"/>
<rect x="168.983" y="36.2637" width="21.5171" height="46.373" rx="10.7585" fill="url(#paint22_linear_82_1090)"/>
<path d="M175.9 67.18V64.76C176.113 64.8 176.567 64.8067 177.26 64.78C178.447 64.74 179.42 64.4733 180.18 63.98C181.127 63.38 181.713 62.6 181.94 61.64L181.9 61.62C181.247 62.2733 180.287 62.6 179.02 62.6C177.78 62.6 176.74 62.2267 175.9 61.48C175.06 60.7333 174.64 59.7333 174.64 58.48C174.64 57.16 175.14 56.0467 176.14 55.14C177.153 54.22 178.407 53.76 179.9 53.76C181.62 53.76 182.933 54.3067 183.84 55.4C184.76 56.48 185.22 57.8267 185.22 59.44C185.22 62.0133 184.447 63.98 182.9 65.34C181.527 66.54 179.667 67.16 177.32 67.2C176.8 67.24 176.327 67.2333 175.9 67.18ZM179.82 56.1H179.8C179.227 56.1 178.753 56.3133 178.38 56.74C178.007 57.1533 177.82 57.6733 177.82 58.3C177.82 58.8733 178 59.3533 178.36 59.74C178.72 60.1267 179.227 60.32 179.88 60.32C180.773 60.32 181.413 60.02 181.8 59.42C181.907 59.2467 181.96 59.06 181.96 58.86C181.973 58.1133 181.807 57.4667 181.46 56.92C181.113 56.3733 180.567 56.1 179.82 56.1Z" fill="white"/>
<rect x="231.309" y="86.2537" width="26.6181" height="8.0689" rx="4.03445" fill="url(#paint23_radial_82_1090)"/>
<rect x="231.309" y="24.9487" width="26.6181" height="8.0689" rx="4.03445" fill="url(#paint24_radial_82_1090)"/>
<rect x="231.679" y="33.0176" width="26.2471" height="26.6181" rx="8" fill="url(#paint25_radial_82_1090)"/>
<path d="M231.309 36.5419C231.309 34.5955 232.886 33.0176 234.833 33.0176C236.779 33.0176 238.357 34.5955 238.357 36.5419V56.1113C238.357 58.0578 236.779 59.6357 234.833 59.6357C232.886 59.6357 231.309 58.0578 231.309 56.1113V36.5419Z" fill="url(#paint26_radial_82_1090)"/>
<rect x="231.679" y="59.6355" width="26.2471" height="26.6181" rx="8" fill="url(#paint27_radial_82_1090)"/>
<path d="M231.309 63.1598C231.309 61.2134 232.886 59.6355 234.833 59.6355C236.779 59.6355 238.357 61.2134 238.357 63.1598V82.7292C238.357 84.6757 236.779 86.2536 234.833 86.2536C232.886 86.2536 231.309 84.6757 231.309 82.7292V63.1598Z" fill="url(#paint28_radial_82_1090)"/>
<rect width="26.6181" height="8.0689" rx="4.03445" transform="matrix(-1 0 0 1 315.707 86.2537)" fill="url(#paint29_radial_82_1090)"/>
<rect width="26.6181" height="8.0689" rx="4.03445" transform="matrix(-1 0 0 1 315.707 24.9487)" fill="url(#paint30_radial_82_1090)"/>
<rect width="26.2471" height="26.6181" rx="8" transform="matrix(-1 0 0 1 315.336 33.0176)" fill="url(#paint31_radial_82_1090)"/>
<path d="M315.707 36.5419C315.707 34.5955 314.129 33.0176 312.182 33.0176C310.236 33.0176 308.658 34.5955 308.658 36.5419V56.1113C308.658 58.0578 310.236 59.6357 312.182 59.6357C314.129 59.6357 315.707 58.0578 315.707 56.1113V36.5419Z" fill="url(#paint32_radial_82_1090)"/>
<rect width="26.2471" height="26.6181" rx="8" transform="matrix(-1 0 0 1 315.336 59.6355)" fill="url(#paint33_radial_82_1090)"/>
<path d="M315.707 63.1598C315.707 61.2134 314.129 59.6355 312.182 59.6355C310.236 59.6355 308.658 61.2134 308.658 63.1598V82.7292C308.658 84.6757 310.236 86.2536 312.182 86.2536C314.129 86.2536 315.707 84.6757 315.707 82.7292V63.1598Z" fill="url(#paint34_radial_82_1090)"/>
<rect x="262.75" y="36.7274" width="21.5171" height="46.373" rx="10.7585" fill="url(#paint35_linear_82_1090)"/>
<path d="M266.1 66V55.78H266.06L263.5 56.96L262.98 54.62L266.58 53H269.16V66H266.1ZM278.913 66.24H278.893C277.2 66.24 275.906 65.62 275.013 64.38C274.133 63.1267 273.686 61.5 273.673 59.5C273.673 57.5133 274.126 55.8933 275.033 54.64C275.94 53.3867 277.253 52.76 278.973 52.76C280.706 52.76 282.006 53.38 282.873 54.62C283.753 55.86 284.193 57.4667 284.193 59.44C284.193 60.7467 284.013 61.9 283.653 62.9C283.293 63.8867 282.706 64.6933 281.893 65.32C281.093 65.9333 280.1 66.24 278.913 66.24ZM278.913 63.92H278.933C279.6 63.92 280.113 63.5467 280.473 62.8C280.833 62.04 281.013 60.9333 281.013 59.48C281.013 56.5467 280.32 55.08 278.933 55.08C278.293 55.08 277.786 55.46 277.413 56.22C277.04 56.9667 276.853 58.0533 276.853 59.48C276.84 60.92 277.02 62.02 277.393 62.78C277.766 63.54 278.273 63.92 278.913 63.92Z" fill="white"/>
<rect width="26.3398" height="5.56476" rx="2.78238" transform="matrix(-1 0 0 1 351.321 29.0295)" fill="url(#paint36_radial_82_1090)"/>
<rect width="26.3398" height="5.56476" rx="2.78238" transform="matrix(-1 0 0 1 351.321 52.7725)" fill="url(#paint37_radial_82_1090)"/>
<rect width="26.3398" height="18.1782" rx="8" transform="matrix(-1 0 0 1 351.321 34.5942)" fill="url(#paint38_radial_82_1090)"/>
<path d="M332.03 38.1186C332.03 36.1721 330.452 34.5942 328.506 34.5942C326.559 34.5942 324.982 36.1721 324.982 38.1186V49.2481C324.982 51.1945 326.559 52.7724 328.506 52.7724C330.452 52.7724 332.03 51.1945 332.03 49.2481V38.1186Z" fill="url(#paint39_radial_82_1090)"/>
<rect width="26.3398" height="5.56476" rx="2.78238" transform="matrix(-1 0 0 1 351.321 61.3049)" fill="url(#paint40_radial_82_1090)"/>
<rect width="26.3398" height="5.56476" rx="2.78238" transform="matrix(-1 0 0 1 351.321 85.048)" fill="url(#paint41_radial_82_1090)"/>
<rect width="26.3398" height="18.1782" rx="8" transform="matrix(-1 0 0 1 351.321 66.8699)" fill="url(#paint42_radial_82_1090)"/>
<path d="M332.03 70.3942C332.03 68.4478 330.452 66.8699 328.506 66.8699C326.559 66.8699 324.982 68.4478 324.982 70.3942V81.5237C324.982 83.4702 326.559 85.0481 328.506 85.0481C330.452 85.0481 332.03 83.4702 332.03 81.5237V70.3942Z" fill="url(#paint43_radial_82_1090)"/>
<rect width="26.6181" height="8.0689" rx="4.03445" transform="matrix(-1 0 0 1 409.103 86.5319)" fill="url(#paint44_radial_82_1090)"/>
<rect width="26.6181" height="8.0689" rx="4.03445" transform="matrix(-1 0 0 1 409.103 25.2269)" fill="url(#paint45_radial_82_1090)"/>
<rect width="26.2471" height="26.6181" rx="8" transform="matrix(-1 0 0 1 408.732 33.2958)" fill="url(#paint46_radial_82_1090)"/>
<path d="M409.103 36.8201C409.103 34.8737 407.525 33.2958 405.579 33.2958C403.632 33.2958 402.054 34.8737 402.054 36.8201V56.3895C402.054 58.336 403.632 59.9139 405.579 59.9139C407.525 59.9139 409.103 58.336 409.103 56.3895V36.8201Z" fill="url(#paint47_radial_82_1090)"/>
<rect width="26.2471" height="26.6181" rx="8" transform="matrix(-1 0 0 1 408.732 59.9138)" fill="url(#paint48_radial_82_1090)"/>
<path d="M409.103 63.4382C409.103 61.4917 407.525 59.9138 405.579 59.9138C403.632 59.9138 402.054 61.4917 402.054 63.4382V83.0076C402.054 84.954 403.632 86.5319 405.579 86.5319C407.525 86.5319 409.103 84.954 409.103 83.0076V63.4382Z" fill="url(#paint49_radial_82_1090)"/>
<rect x="356.145" y="37.0056" width="21.5171" height="46.373" rx="10.7585" fill="url(#paint50_linear_82_1090)"/>
<path d="M359.632 66.2013V55.9813H359.592L357.032 57.1613L356.512 54.8213L360.112 53.2013H362.692V66.2013H359.632ZM371.585 66.2013V55.9813H371.545L368.985 57.1613L368.465 54.8213L372.065 53.2013H374.645V66.2013H371.585Z" fill="white"/>
<path d="M520.247 357.211C520.247 359.183 521.845 360.781 523.817 360.781L543.526 360.781C547.47 360.781 550.667 357.584 550.667 353.64L523.817 353.64C521.845 353.64 520.247 355.239 520.247 357.211Z" fill="url(#paint51_radial_82_1090)"/>
<path d="M472.726 255.159C472.726 253.417 471.314 252.005 469.572 252.005C467.831 252.005 466.419 253.417 466.419 255.159V279.273C466.419 281.014 467.831 282.426 469.572 282.426C471.314 282.426 472.726 281.014 472.726 279.273V255.159Z" fill="url(#paint52_radial_82_1090)"/>
<path d="M472.746 274.411C472.746 278.829 476.327 282.411 480.746 282.411H488.489C492.907 282.411 496.489 278.829 496.489 274.411V258.668H472.746V274.411Z" fill="url(#paint53_radial_82_1090)"/>
<path d="M496.488 274.411C496.488 278.829 500.07 282.411 504.488 282.411H512.231C516.65 282.411 520.231 278.829 520.231 274.411V258.668H496.488V274.411Z" fill="url(#paint54_radial_82_1090)"/>
<path d="M543.974 282.411H528.231C523.813 282.411 520.231 278.829 520.231 274.411V258.668H543.974V282.411Z" fill="url(#paint55_radial_82_1090)"/>
<path d="M528.231 306.154C523.813 306.154 520.231 302.572 520.231 298.154L520.231 290.411C520.231 285.993 523.813 282.411 528.231 282.411L543.974 282.411L543.974 306.154L528.231 306.154Z" fill="url(#paint56_radial_82_1090)"/>
<path d="M528.231 329.897C523.813 329.897 520.231 326.315 520.231 321.897L520.231 314.154C520.231 309.736 523.813 306.154 528.231 306.154L543.974 306.154L543.974 329.897L528.231 329.897Z" fill="url(#paint57_radial_82_1090)"/>
<path d="M528.231 353.64C523.813 353.64 520.231 350.058 520.231 345.64L520.231 337.897C520.231 333.479 523.813 329.897 528.231 329.897L543.974 329.897L543.974 353.64L528.231 353.64Z" fill="url(#paint58_radial_82_1090)"/>
<path d="M550.652 260.152C550.652 258.308 549.157 256.813 547.313 256.813C545.469 256.813 543.974 258.308 543.974 260.152V353.64H550.652V260.152Z" fill="url(#paint59_radial_82_1090)"/>
<path d="M476.084 251.99C474.24 251.99 472.746 253.485 472.746 255.329C472.746 257.173 474.24 258.668 476.084 258.668L547.313 258.668C549.157 258.668 550.652 257.173 550.652 255.329C550.652 253.485 549.157 251.99 547.313 251.99L476.084 251.99Z" fill="url(#paint60_radial_82_1090)"/>
<rect x="480.702" y="287.698" width="31.5336" height="67.3335" rx="8" fill="url(#paint61_linear_82_1090)"/>
<path d="M497.791 308.115H495.159L491.827 298.679H494.263L495.565 302.641C496.004 303.994 496.33 305.128 496.545 306.043H496.573C496.769 305.194 497.1 304.083 497.567 302.711L498.953 298.679H501.305L497.791 308.115ZM495.428 315.679H497.654V325.115H495.428V315.679ZM493.158 342.115V332.805C494.036 332.665 495.104 332.595 496.364 332.595C497.671 332.595 498.67 332.852 499.36 333.365C500.07 333.897 500.424 334.639 500.424 335.591C500.424 336.562 500.13 337.299 499.542 337.803C498.786 338.494 497.676 338.839 496.21 338.839C495.884 338.839 495.604 338.816 495.37 338.769V342.115H493.158ZM495.37 334.331V337.075C495.548 337.122 495.828 337.145 496.21 337.145C496.826 337.145 497.312 337.014 497.666 336.753C498.03 336.482 498.212 336.104 498.212 335.619C498.212 335.18 498.049 334.844 497.722 334.611C497.405 334.378 496.957 334.261 496.378 334.261C495.893 334.261 495.557 334.284 495.37 334.331Z" fill="white"/>
<rect x="17.9927" y="123.723" width="100.629" height="72.2491" fill="#D9D9D9"/>
<rect x="17.9927" y="195.972" width="58.3372" height="164.717" fill="#D9D9D9"/>
<path d="M17.9927 359.762H52.8651C99.4261 359.762 137.171 397.507 137.171 444.068H17.9927V359.762Z" fill="#D9D9D9"/>
<path d="M179 431H451C459.284 431 466 437.716 466 446H179V431Z" fill="#D9D9D9"/>
<path d="M179 473H466V488H179V473Z" fill="#D9D9D9"/>
<path d="M454 446H466V488H454V446Z" fill="#D9D9D9"/>
<path d="M289.777 467.45V451.562C291.153 451.322 292.857 451.202 294.889 451.202C297.113 451.202 298.785 451.482 299.905 452.042C301.345 452.698 302.065 453.786 302.065 455.306C302.065 456.042 301.833 456.714 301.369 457.322C300.905 457.93 300.217 458.394 299.305 458.714V458.762C300.281 459.018 301.081 459.498 301.705 460.202C302.329 460.89 302.641 461.746 302.641 462.77C302.641 464.194 302.025 465.37 300.793 466.298C299.481 467.242 297.241 467.714 294.073 467.714C292.473 467.714 291.041 467.626 289.777 467.45ZM293.569 454.082V457.682H294.937C296.009 457.682 296.817 457.514 297.361 457.178C297.921 456.842 298.201 456.37 298.201 455.762C298.201 454.562 297.257 453.962 295.369 453.962C294.537 453.962 293.937 454.002 293.569 454.082ZM293.569 460.394V464.834C293.841 464.882 294.385 464.906 295.201 464.906C296.193 464.906 297.001 464.722 297.625 464.354C298.265 463.986 298.585 463.402 298.585 462.602C298.585 461.13 297.393 460.394 295.009 460.394H293.569ZM314.465 463.202H309.233L307.961 467.522H303.929L309.329 451.346H314.465L320.129 467.522H315.905L314.465 463.202ZM309.833 460.394H313.841L312.665 456.938C312.457 456.33 312.161 455.354 311.777 454.01H311.729C311.649 454.266 311.521 454.738 311.345 455.426C311.185 456.098 311.049 456.602 310.937 456.938L309.833 460.394ZM322.402 467.522V451.562C323.97 451.322 325.754 451.202 327.754 451.202C330.282 451.202 332.13 451.634 333.298 452.498C334.338 453.282 334.858 454.418 334.858 455.906C334.858 456.898 334.546 457.746 333.922 458.45C333.314 459.154 332.634 459.626 331.882 459.866V459.962C332.858 460.362 333.602 461.338 334.114 462.89C334.242 463.322 334.41 463.922 334.618 464.69C334.826 465.458 335.002 466.074 335.146 466.538C335.29 467.002 335.41 467.33 335.506 467.522H331.594C331.274 466.946 330.874 465.698 330.394 463.778C330.154 462.786 329.818 462.114 329.386 461.762C328.97 461.41 328.338 461.226 327.49 461.21H326.194V467.522H322.402ZM326.194 454.13V458.498H327.922C328.898 458.498 329.666 458.298 330.226 457.898C330.786 457.482 331.066 456.922 331.066 456.218C331.066 455.482 330.802 454.93 330.274 454.562C329.762 454.194 329.05 454.01 328.138 454.01C327.322 454.01 326.674 454.05 326.194 454.13Z" fill="white"/>
<path d="M179 420C179 413.373 184.373 408 191 408C197.627 408 203 413.373 203 420V428H179V420Z" fill="#D9D9D9"/>
<path d="M190.08 422.5V414.324H190.048L188 415.268L187.584 413.396L190.464 412.1H192.528V422.5H190.08Z" fill="black"/>
<path d="M214.857 420C214.857 413.373 220.23 408 226.857 408C233.484 408 238.857 413.373 238.857 420V428H214.857V420Z" fill="#D9D9D9"/>
<path d="M230.561 422.5H222.625V420.996L224.065 419.828C225.452 418.676 226.417 417.801 226.961 417.204C227.505 416.596 227.782 416.025 227.793 415.492C227.793 415.033 227.644 414.66 227.345 414.372C227.046 414.084 226.588 413.94 225.969 413.94C225.18 413.94 224.364 414.26 223.521 414.9L222.737 413.124C223.75 412.313 225.004 411.908 226.497 411.908C227.681 411.908 228.614 412.212 229.297 412.82C229.99 413.428 230.337 414.239 230.337 415.252C230.337 416.031 230.086 416.761 229.585 417.444C229.094 418.127 228.39 418.841 227.473 419.588L226.385 420.404V420.436H230.561V422.5Z" fill="black"/>
<path d="M250.714 420C250.714 413.373 256.087 408 262.714 408C269.342 408 274.714 413.373 274.714 420V428H250.714V420Z" fill="#D9D9D9"/>
<path d="M258.402 421.876L258.962 419.988C259.869 420.457 260.776 420.692 261.682 420.692C262.333 420.692 262.829 420.569 263.17 420.324C263.512 420.068 263.682 419.743 263.682 419.348C263.682 418.889 263.469 418.537 263.042 418.292C262.626 418.036 262.125 417.908 261.538 417.908H260.306V416.084H261.506C261.997 416.084 262.429 415.993 262.802 415.812C263.186 415.62 263.378 415.332 263.378 414.948C263.378 414.639 263.24 414.388 262.962 414.196C262.685 413.993 262.28 413.892 261.746 413.892C260.882 413.892 260.061 414.121 259.282 414.58L258.706 412.772C259.09 412.527 259.602 412.324 260.242 412.164C260.893 411.993 261.576 411.908 262.29 411.908C263.432 411.908 264.328 412.159 264.978 412.66C265.64 413.151 265.97 413.775 265.97 414.532C265.97 415.716 265.293 416.527 263.938 416.964V416.996C264.621 417.092 265.192 417.369 265.65 417.828C266.12 418.287 266.354 418.841 266.354 419.492C266.354 420.452 265.944 421.225 265.122 421.812C264.301 422.399 263.208 422.692 261.842 422.692C260.402 422.692 259.256 422.42 258.402 421.876Z" fill="black"/>
<path d="M286.571 420C286.571 413.373 291.944 408 298.571 408C305.199 408 310.571 413.373 310.571 420V428H286.571V420Z" fill="#D9D9D9"/>
<path d="M301.411 422.5H298.963V420.02H294.003V418.388L298.115 412.1H301.411V418.148H302.723V420.02H301.411V422.5ZM296.419 418.148H298.963V415.796C298.963 415.391 298.985 414.719 299.027 413.78H298.963C298.867 413.961 298.702 414.281 298.467 414.74C298.243 415.199 298.062 415.556 297.923 415.812L296.435 418.116L296.419 418.148Z" fill="black"/>
<path d="M322.429 420C322.429 413.373 327.801 408 334.429 408C341.056 408 346.429 413.373 346.429 420V428H322.429V420Z" fill="#D9D9D9"/>
<path d="M337.637 412.1V414.164H333.173L332.949 415.668C333.215 415.636 333.482 415.62 333.749 415.62C334.975 415.62 335.978 415.865 336.757 416.356C337.674 416.943 338.133 417.844 338.133 419.06C338.133 420.063 337.701 420.921 336.837 421.636C335.973 422.34 334.821 422.692 333.381 422.692C332.101 422.692 331.034 422.479 330.181 422.052L330.661 420.164C331.429 420.548 332.303 420.74 333.285 420.74C333.861 420.74 334.373 420.612 334.821 420.356C335.269 420.1 335.493 419.716 335.493 419.204C335.493 418.084 334.442 417.524 332.341 417.524C331.839 417.524 331.301 417.561 330.725 417.636L331.429 412.1H337.637Z" fill="black"/>
<path d="M358.286 420C358.286 413.373 363.658 408 370.286 408C376.913 408 382.286 413.373 382.286 420V428H358.286V420Z" fill="#D9D9D9"/>
<path d="M373.142 411.956V413.892C372.864 413.86 372.539 413.86 372.166 413.892C371.035 413.956 370.166 414.207 369.558 414.644C368.95 415.081 368.571 415.625 368.422 416.276H368.454C369.062 415.732 369.867 415.46 370.87 415.46C371.851 415.46 372.678 415.769 373.35 416.388C374.032 416.996 374.374 417.839 374.374 418.916C374.374 419.983 373.979 420.879 373.19 421.604C372.4 422.329 371.424 422.692 370.262 422.692C368.822 422.692 367.718 422.255 366.95 421.38C366.192 420.495 365.814 419.396 365.814 418.084C365.814 417.156 365.979 416.297 366.31 415.508C366.64 414.708 367.104 414.041 367.702 413.508C368.843 412.505 370.336 411.983 372.182 411.94C372.406 411.919 372.726 411.924 373.142 411.956ZM370.214 420.82H370.23C370.688 420.82 371.062 420.66 371.35 420.34C371.638 420.009 371.782 419.593 371.782 419.092C371.782 418.569 371.632 418.137 371.334 417.796C371.035 417.444 370.608 417.268 370.054 417.268C369.68 417.268 369.344 417.364 369.046 417.556C368.758 417.737 368.55 417.972 368.422 418.26C368.347 418.399 368.31 418.575 368.31 418.788C368.342 419.353 368.518 419.833 368.838 420.228C369.168 420.623 369.627 420.82 370.214 420.82Z" fill="black"/>
<path d="M394.143 420C394.143 413.373 399.516 408 406.143 408C412.77 408 418.143 413.373 418.143 420V428H394.143V420Z" fill="#D9D9D9"/>
<path d="M401.991 412.1H409.895V413.684L405.271 422.5H402.503L407.159 414.196V414.164H401.991V412.1Z" fill="black"/>
<path d="M430 420C430 413.373 435.373 408 442 408C448.627 408 454 413.373 454 420V428H430V420Z" fill="#D9D9D9"/>
<path d="M441.832 411.908H441.848C443.107 411.908 444.04 412.185 444.648 412.74C445.256 413.295 445.56 413.919 445.56 414.612C445.56 415.103 445.421 415.551 445.144 415.956C444.877 416.361 444.493 416.681 443.992 416.916V416.948C444.568 417.151 445.048 417.465 445.432 417.892C445.816 418.319 446.008 418.852 446.008 419.492C446.008 420.452 445.619 421.225 444.84 421.812C444.072 422.399 443.032 422.692 441.72 422.692C440.365 422.692 439.336 422.399 438.632 421.812C437.928 421.215 437.576 420.543 437.576 419.796C437.576 418.601 438.227 417.743 439.528 417.22V417.188C438.472 416.676 437.944 415.913 437.944 414.9C437.944 414.015 438.312 413.295 439.048 412.74C439.784 412.185 440.712 411.908 441.832 411.908ZM441.816 420.932H441.832C442.28 420.932 442.648 420.815 442.936 420.58C443.235 420.345 443.384 420.052 443.384 419.7C443.384 418.868 442.787 418.329 441.592 418.084C441.155 418.159 440.813 418.329 440.568 418.596C440.333 418.852 440.216 419.161 440.216 419.524C440.205 419.897 440.349 420.228 440.648 420.516C440.957 420.793 441.347 420.932 441.816 420.932ZM441.752 413.636H441.736C441.309 413.636 440.973 413.748 440.728 413.972C440.483 414.196 440.36 414.473 440.36 414.804C440.36 415.444 440.899 415.903 441.976 416.18C442.296 416.116 442.568 415.967 442.792 415.732C443.027 415.497 443.144 415.22 443.144 414.9C443.144 414.559 443.027 414.265 442.792 414.02C442.557 413.764 442.211 413.636 441.752 413.636Z" fill="black"/>
<circle cx="275.826" cy="263.12" r="38.7678" fill="#E31E24"/>
<path d="M268.107 273.667V252.483C269.942 252.163 272.214 252.003 274.923 252.003C277.889 252.003 280.118 252.376 281.611 253.123C283.531 253.997 284.491 255.448 284.491 257.475C284.491 258.456 284.182 259.352 283.563 260.163C282.945 260.973 282.027 261.592 280.811 262.019V262.083C282.113 262.424 283.179 263.064 284.011 264.003C284.843 264.92 285.259 266.061 285.259 267.427C285.259 269.325 284.438 270.893 282.795 272.131C281.046 273.389 278.059 274.019 273.835 274.019C271.702 274.019 269.793 273.901 268.107 273.667ZM273.163 255.843V260.643H274.987C276.417 260.643 277.494 260.419 278.219 259.971C278.966 259.523 279.339 258.893 279.339 258.083C279.339 256.483 278.081 255.683 275.563 255.683C274.454 255.683 273.654 255.736 273.163 255.843ZM273.163 264.259V270.179C273.526 270.243 274.251 270.275 275.339 270.275C276.662 270.275 277.739 270.029 278.571 269.539C279.425 269.048 279.851 268.269 279.851 267.203C279.851 265.24 278.262 264.259 275.083 264.259H273.163Z" fill="white"/>
<path d="M121.59 360.689C137.674 360.689 150.712 323.795 150.712 278.284C150.712 232.773 137.674 195.879 121.59 195.879C120.588 195.879 119.598 196.023 118.622 196.302V195.972H67.519V360.689H118.622V360.266C119.598 360.546 120.588 360.689 121.59 360.689Z" fill="#E31E24"/>
<path d="M113.425 283.11H106.449L104.753 288.87H99.3771L106.577 267.302H113.425L120.977 288.87H115.345L113.425 283.11ZM107.249 279.366H112.593L111.025 274.758C110.748 273.948 110.353 272.646 109.841 270.854H109.777C109.67 271.196 109.5 271.825 109.265 272.742C109.052 273.638 108.87 274.31 108.721 274.758L107.249 279.366Z" fill="white"/>
<defs>
<linearGradient id="paint0_linear_82_1090" x1="142.992" y1="140.181" x2="152.39" y2="182.19" gradientUnits="userSpaceOnUse">
<stop stop-color="#464446"/>
<stop offset="1" stop-color="#797979"/>
</linearGradient>
<linearGradient id="paint1_linear_82_1090" x1="251.031" y1="148.359" x2="261.768" y2="196.35" gradientUnits="userSpaceOnUse">
<stop stop-color="#464446"/>
<stop offset="1" stop-color="#797979"/>
</linearGradient>
<linearGradient id="paint2_linear_82_1090" x1="183.975" y1="226.172" x2="194.712" y2="274.164" gradientUnits="userSpaceOnUse">
<stop stop-color="#464446"/>
<stop offset="1" stop-color="#797979"/>
</linearGradient>
<linearGradient id="paint3_linear_82_1090" x1="329.473" y1="177.59" x2="340.21" y2="225.581" gradientUnits="userSpaceOnUse">
<stop stop-color="#464446"/>
<stop offset="1" stop-color="#797979"/>
</linearGradient>
<linearGradient id="paint4_linear_82_1090" x1="176.878" y1="308.946" x2="187.615" y2="356.938" gradientUnits="userSpaceOnUse">
<stop stop-color="#464446"/>
<stop offset="1" stop-color="#797979"/>
</linearGradient>
<linearGradient id="paint5_linear_82_1090" x1="239.975" y1="335.244" x2="250.712" y2="383.236" gradientUnits="userSpaceOnUse">
<stop stop-color="#464446"/>
<stop offset="1" stop-color="#797979"/>
</linearGradient>
<linearGradient id="paint6_linear_82_1090" x1="304.604" y1="319.191" x2="315.34" y2="367.182" gradientUnits="userSpaceOnUse">
<stop stop-color="#464446"/>
<stop offset="1" stop-color="#797979"/>
</linearGradient>
<linearGradient id="paint7_linear_82_1090" x1="384.052" y1="325.191" x2="394.789" y2="373.182" gradientUnits="userSpaceOnUse">
<stop stop-color="#464446"/>
<stop offset="1" stop-color="#797979"/>
</linearGradient>
<radialGradient id="paint8_radial_82_1090" cx="0" cy="0" r="1" gradientUnits="userSpaceOnUse" gradientTransform="translate(208.864 31.5335) scale(13.1699 2.78238)">
<stop stop-color="white"/>
<stop offset="1" stop-color="#ABABAB"/>
</radialGradient>
<radialGradient id="paint9_radial_82_1090" cx="0" cy="0" r="1" gradientUnits="userSpaceOnUse" gradientTransform="translate(208.864 55.2766) scale(13.1699 2.78238)">
<stop stop-color="white"/>
<stop offset="1" stop-color="#ABABAB"/>
</radialGradient>
<radialGradient id="paint10_radial_82_1090" cx="0" cy="0" r="1" gradientUnits="userSpaceOnUse" gradientTransform="translate(208.864 43.4051) scale(13.1699 9.0891)">
<stop stop-color="white"/>
<stop offset="1" stop-color="#9E9E9E"/>
</radialGradient>
<radialGradient id="paint11_radial_82_1090" cx="0" cy="0" r="1" gradientUnits="userSpaceOnUse" gradientTransform="translate(218.509 43.4051) scale(3.52435 9.0891)">
<stop stop-color="white"/>
<stop offset="1" stop-color="#BDBDBD"/>
</radialGradient>
<radialGradient id="paint12_radial_82_1090" cx="0" cy="0" r="1" gradientUnits="userSpaceOnUse" gradientTransform="translate(208.864 63.8091) scale(13.1699 2.78238)">
<stop stop-color="white"/>
<stop offset="1" stop-color="#ABABAB"/>
</radialGradient>
<radialGradient id="paint13_radial_82_1090" cx="0" cy="0" r="1" gradientUnits="userSpaceOnUse" gradientTransform="translate(208.864 87.5522) scale(13.1699 2.78238)">
<stop stop-color="white"/>
<stop offset="1" stop-color="#ABABAB"/>
</radialGradient>
<radialGradient id="paint14_radial_82_1090" cx="0" cy="0" r="1" gradientUnits="userSpaceOnUse" gradientTransform="translate(208.864 75.6808) scale(13.1699 9.0891)">
<stop stop-color="white"/>
<stop offset="1" stop-color="#9E9E9E"/>
</radialGradient>
<radialGradient id="paint15_radial_82_1090" cx="0" cy="0" r="1" gradientUnits="userSpaceOnUse" gradientTransform="translate(218.509 75.6808) scale(3.52435 9.0891)">
<stop stop-color="white"/>
<stop offset="1" stop-color="#BDBDBD"/>
</radialGradient>
<radialGradient id="paint16_radial_82_1090" cx="0" cy="0" r="1" gradientUnits="userSpaceOnUse" gradientTransform="translate(150.48 90.1027) scale(13.309 4.03445)">
<stop stop-color="white"/>
<stop offset="1" stop-color="#ABABAB"/>
</radialGradient>
<radialGradient id="paint17_radial_82_1090" cx="0" cy="0" r="1" gradientUnits="userSpaceOnUse" gradientTransform="translate(150.48 28.9832) scale(13.309 4.03445)">
<stop stop-color="white"/>
<stop offset="1" stop-color="#ABABAB"/>
</radialGradient>
<radialGradient id="paint18_radial_82_1090" cx="0" cy="0" r="1" gradientUnits="userSpaceOnUse" gradientTransform="translate(150.666 46.3266) scale(13.1235 13.309)">
<stop stop-color="white"/>
<stop offset="1" stop-color="#9E9E9E"/>
</radialGradient>
<radialGradient id="paint19_radial_82_1090" cx="0" cy="0" r="1" gradientUnits="userSpaceOnUse" gradientTransform="translate(140.695 46.3266) scale(3.52435 13.309)">
<stop stop-color="white"/>
<stop offset="1" stop-color="#BDBDBD"/>
</radialGradient>
<radialGradient id="paint20_radial_82_1090" cx="0" cy="0" r="1" gradientUnits="userSpaceOnUse" gradientTransform="translate(150.666 72.7592) scale(13.1235 13.309)">
<stop stop-color="white"/>
<stop offset="1" stop-color="#9E9E9E"/>
</radialGradient>
<radialGradient id="paint21_radial_82_1090" cx="0" cy="0" r="1" gradientUnits="userSpaceOnUse" gradientTransform="translate(140.695 72.7592) scale(3.52435 13.309)">
<stop stop-color="white"/>
<stop offset="1" stop-color="#BDBDBD"/>
</radialGradient>
<linearGradient id="paint22_linear_82_1090" x1="169.299" y1="36.6339" x2="191.01" y2="81.6646" gradientUnits="userSpaceOnUse">
<stop stop-color="#464446"/>
<stop offset="1" stop-color="#797979"/>
</linearGradient>
<radialGradient id="paint23_radial_82_1090" cx="0" cy="0" r="1" gradientUnits="userSpaceOnUse" gradientTransform="translate(244.618 90.2881) scale(13.309 4.03445)">
<stop stop-color="white"/>
<stop offset="1" stop-color="#ABABAB"/>
</radialGradient>
<radialGradient id="paint24_radial_82_1090" cx="0" cy="0" r="1" gradientUnits="userSpaceOnUse" gradientTransform="translate(244.618 28.9832) scale(13.309 4.03445)">
<stop stop-color="white"/>
<stop offset="1" stop-color="#ABABAB"/>
</radialGradient>
<radialGradient id="paint25_radial_82_1090" cx="0" cy="0" r="1" gradientUnits="userSpaceOnUse" gradientTransform="translate(244.803 46.3266) scale(13.1235 13.309)">
<stop stop-color="white"/>
<stop offset="1" stop-color="#9E9E9E"/>
</radialGradient>
<radialGradient id="paint26_radial_82_1090" cx="0" cy="0" r="1" gradientUnits="userSpaceOnUse" gradientTransform="translate(234.833 46.3266) scale(3.52435 13.309)">
<stop stop-color="white"/>
<stop offset="1" stop-color="#BDBDBD"/>
</radialGradient>
<radialGradient id="paint27_radial_82_1090" cx="0" cy="0" r="1" gradientUnits="userSpaceOnUse" gradientTransform="translate(244.803 72.9445) scale(13.1235 13.309)">
<stop stop-color="white"/>
<stop offset="1" stop-color="#9E9E9E"/>
</radialGradient>
<radialGradient id="paint28_radial_82_1090" cx="0" cy="0" r="1" gradientUnits="userSpaceOnUse" gradientTransform="translate(234.833 72.9445) scale(3.52435 13.309)">
<stop stop-color="white"/>
<stop offset="1" stop-color="#BDBDBD"/>
</radialGradient>
<radialGradient id="paint29_radial_82_1090" cx="0" cy="0" r="1" gradientUnits="userSpaceOnUse" gradientTransform="translate(13.309 4.03445) scale(13.309 4.03445)">
<stop stop-color="white"/>
<stop offset="1" stop-color="#ABABAB"/>
</radialGradient>
<radialGradient id="paint30_radial_82_1090" cx="0" cy="0" r="1" gradientUnits="userSpaceOnUse" gradientTransform="translate(13.309 4.03445) scale(13.309 4.03445)">
<stop stop-color="white"/>
<stop offset="1" stop-color="#ABABAB"/>
</radialGradient>
<radialGradient id="paint31_radial_82_1090" cx="0" cy="0" r="1" gradientUnits="userSpaceOnUse" gradientTransform="translate(13.1235 13.309) scale(13.1235 13.309)">
<stop stop-color="white"/>
<stop offset="1" stop-color="#9E9E9E"/>
</radialGradient>
<radialGradient id="paint32_radial_82_1090" cx="0" cy="0" r="1" gradientUnits="userSpaceOnUse" gradientTransform="translate(312.182 46.3266) rotate(180) scale(3.52435 13.309)">
<stop stop-color="white"/>
<stop offset="1" stop-color="#BDBDBD"/>
</radialGradient>
<radialGradient id="paint33_radial_82_1090" cx="0" cy="0" r="1" gradientUnits="userSpaceOnUse" gradientTransform="translate(13.1235 13.309) scale(13.1235 13.309)">
<stop stop-color="white"/>
<stop offset="1" stop-color="#9E9E9E"/>
</radialGradient>
<radialGradient id="paint34_radial_82_1090" cx="0" cy="0" r="1" gradientUnits="userSpaceOnUse" gradientTransform="translate(312.182 72.9445) rotate(180) scale(3.52435 13.309)">
<stop stop-color="white"/>
<stop offset="1" stop-color="#BDBDBD"/>
</radialGradient>
<linearGradient id="paint35_linear_82_1090" x1="263.065" y1="37.0977" x2="284.777" y2="82.1284" gradientUnits="userSpaceOnUse">
<stop stop-color="#464446"/>
<stop offset="1" stop-color="#797979"/>
</linearGradient>
<radialGradient id="paint36_radial_82_1090" cx="0" cy="0" r="1" gradientUnits="userSpaceOnUse" gradientTransform="translate(13.1699 2.78238) scale(13.1699 2.78238)">
<stop stop-color="white"/>
<stop offset="1" stop-color="#ABABAB"/>
</radialGradient>
<radialGradient id="paint37_radial_82_1090" cx="0" cy="0" r="1" gradientUnits="userSpaceOnUse" gradientTransform="translate(13.1699 2.78238) scale(13.1699 2.78238)">
<stop stop-color="white"/>
<stop offset="1" stop-color="#ABABAB"/>
</radialGradient>
<radialGradient id="paint38_radial_82_1090" cx="0" cy="0" r="1" gradientUnits="userSpaceOnUse" gradientTransform="translate(13.1699 9.0891) scale(13.1699 9.0891)">
<stop stop-color="white"/>
<stop offset="1" stop-color="#9E9E9E"/>
</radialGradient>
<radialGradient id="paint39_radial_82_1090" cx="0" cy="0" r="1" gradientUnits="userSpaceOnUse" gradientTransform="translate(328.506 43.6833) rotate(180) scale(3.52435 9.0891)">
<stop stop-color="white"/>
<stop offset="1" stop-color="#BDBDBD"/>
</radialGradient>
<radialGradient id="paint40_radial_82_1090" cx="0" cy="0" r="1" gradientUnits="userSpaceOnUse" gradientTransform="translate(13.1699 2.78238) scale(13.1699 2.78238)">
<stop stop-color="white"/>
<stop offset="1" stop-color="#ABABAB"/>
</radialGradient>
<radialGradient id="paint41_radial_82_1090" cx="0" cy="0" r="1" gradientUnits="userSpaceOnUse" gradientTransform="translate(13.1699 2.78238) scale(13.1699 2.78238)">
<stop stop-color="white"/>
<stop offset="1" stop-color="#ABABAB"/>
</radialGradient>
<radialGradient id="paint42_radial_82_1090" cx="0" cy="0" r="1" gradientUnits="userSpaceOnUse" gradientTransform="translate(13.1699 9.0891) scale(13.1699 9.0891)">
<stop stop-color="white"/>
<stop offset="1" stop-color="#9E9E9E"/>
</radialGradient>
<radialGradient id="paint43_radial_82_1090" cx="0" cy="0" r="1" gradientUnits="userSpaceOnUse" gradientTransform="translate(328.506 75.959) rotate(180) scale(3.52435 9.0891)">
<stop stop-color="white"/>
<stop offset="1" stop-color="#BDBDBD"/>
</radialGradient>
<radialGradient id="paint44_radial_82_1090" cx="0" cy="0" r="1" gradientUnits="userSpaceOnUse" gradientTransform="translate(13.309 4.03445) scale(13.309 4.03445)">
<stop stop-color="white"/>
<stop offset="1" stop-color="#ABABAB"/>
</radialGradient>
<radialGradient id="paint45_radial_82_1090" cx="0" cy="0" r="1" gradientUnits="userSpaceOnUse" gradientTransform="translate(13.309 4.03445) scale(13.309 4.03445)">
<stop stop-color="white"/>
<stop offset="1" stop-color="#ABABAB"/>
</radialGradient>
<radialGradient id="paint46_radial_82_1090" cx="0" cy="0" r="1" gradientUnits="userSpaceOnUse" gradientTransform="translate(13.1235 13.309) scale(13.1235 13.309)">
<stop stop-color="white"/>
<stop offset="1" stop-color="#9E9E9E"/>
</radialGradient>
<radialGradient id="paint47_radial_82_1090" cx="0" cy="0" r="1" gradientUnits="userSpaceOnUse" gradientTransform="translate(405.579 46.6048) rotate(180) scale(3.52435 13.309)">
<stop stop-color="white"/>
<stop offset="1" stop-color="#BDBDBD"/>
</radialGradient>
<radialGradient id="paint48_radial_82_1090" cx="0" cy="0" r="1" gradientUnits="userSpaceOnUse" gradientTransform="translate(13.1235 13.309) scale(13.1235 13.309)">
<stop stop-color="white"/>
<stop offset="1" stop-color="#9E9E9E"/>
</radialGradient>
<radialGradient id="paint49_radial_82_1090" cx="0" cy="0" r="1" gradientUnits="userSpaceOnUse" gradientTransform="translate(405.579 73.2229) rotate(180) scale(3.52435 13.309)">
<stop stop-color="white"/>
<stop offset="1" stop-color="#BDBDBD"/>
</radialGradient>
<linearGradient id="paint50_linear_82_1090" x1="356.46" y1="37.3759" x2="378.172" y2="82.4066" gradientUnits="userSpaceOnUse">
<stop stop-color="#464446"/>
<stop offset="1" stop-color="#797979"/>
</linearGradient>
<radialGradient id="paint51_radial_82_1090" cx="0" cy="0" r="1" gradientUnits="userSpaceOnUse" gradientTransform="translate(535.457 357.211) scale(15.2103 3.57072)">
<stop stop-color="white"/>
<stop offset="1" stop-color="#ABABAB"/>
</radialGradient>
<radialGradient id="paint52_radial_82_1090" cx="0" cy="0" r="1" gradientUnits="userSpaceOnUse" gradientTransform="translate(469.572 267.216) rotate(180) scale(3.15336 15.2103)">
<stop stop-color="white"/>
<stop offset="1" stop-color="#BDBDBD"/>
</radialGradient>
<radialGradient id="paint53_radial_82_1090" cx="0" cy="0" r="1" gradientUnits="userSpaceOnUse" gradientTransform="translate(484.617 270.539) scale(11.8715)">
<stop stop-color="white"/>
<stop offset="1" stop-color="#9E9E9E"/>
</radialGradient>
<radialGradient id="paint54_radial_82_1090" cx="0" cy="0" r="1" gradientUnits="userSpaceOnUse" gradientTransform="translate(508.36 270.539) scale(11.8715)">
<stop stop-color="white"/>
<stop offset="1" stop-color="#9E9E9E"/>
</radialGradient>
<radialGradient id="paint55_radial_82_1090" cx="0" cy="0" r="1" gradientUnits="userSpaceOnUse" gradientTransform="translate(532.103 270.539) rotate(180) scale(11.8715)">
<stop stop-color="white"/>
<stop offset="1" stop-color="#9E9E9E"/>
</radialGradient>
<radialGradient id="paint56_radial_82_1090" cx="0" cy="0" r="1" gradientUnits="userSpaceOnUse" gradientTransform="translate(532.103 294.282) rotate(-90) scale(11.8715)">
<stop stop-color="white"/>
<stop offset="1" stop-color="#9E9E9E"/>
</radialGradient>
<radialGradient id="paint57_radial_82_1090" cx="0" cy="0" r="1" gradientUnits="userSpaceOnUse" gradientTransform="translate(532.103 318.026) rotate(-90) scale(11.8715)">
<stop stop-color="white"/>
<stop offset="1" stop-color="#9E9E9E"/>
</radialGradient>
<radialGradient id="paint58_radial_82_1090" cx="0" cy="0" r="1" gradientUnits="userSpaceOnUse" gradientTransform="translate(532.103 341.768) rotate(-90) scale(11.8715)">
<stop stop-color="white"/>
<stop offset="1" stop-color="#9E9E9E"/>
</radialGradient>
<radialGradient id="paint59_radial_82_1090" cx="0" cy="0" r="1" gradientUnits="userSpaceOnUse" gradientTransform="translate(547.313 305.227) rotate(180) scale(3.33885 48.4134)">
<stop stop-color="white"/>
<stop offset="1" stop-color="#BDBDBD"/>
</radialGradient>
<radialGradient id="paint60_radial_82_1090" cx="0" cy="0" r="1" gradientUnits="userSpaceOnUse" gradientTransform="translate(511.699 255.329) rotate(90) scale(3.33886 38.9533)">
<stop stop-color="white"/>
<stop offset="1" stop-color="#BDBDBD"/>
</radialGradient>
<linearGradient id="paint61_linear_82_1090" x1="481.164" y1="288.236" x2="512.507" y2="353.847" gradientUnits="userSpaceOnUse">
<stop stop-color="#464446"/>
<stop offset="1" stop-color="#797979"/>
</linearGradient>
</defs>
</svg>
