<svg width="6038" height="5435" viewBox="0 0 6038 5435" fill="none" xmlns="http://www.w3.org/2000/svg">
<path fill-rule="evenodd" clip-rule="evenodd" d="M1277.07 0H4553.66V1681.35H5069.4L5069.4 2578.63H6038V5434H0V1182.4H1277.07L1277.07 0Z" fill="#2A2A2A"/>
<path d="M4553.66 0V2532.61H4478.18V167.722H1442.41V1333.39H192.881V5266.48H5937.37V2717.1H4989.74V1677.22H5073.6V2574.54H6038V5434.2H0V1174.06H1274.69V0H4553.66Z" fill="black"/>
<rect x="2110" y="310" width="284" height="60" rx="16" fill="url(#paint0_radial_82_1090)"/>
<rect x="2110" y="566" width="284" height="60" rx="16" fill="url(#paint1_radial_82_1090)"/>
<rect x="2110" y="370" width="284" height="196" rx="32" fill="url(#paint2_radial_82_1090)"/>
<path d="M2318 378C2318 373.582 2321.58 370 2326 370H2386C2390.42 370 2394 373.582 2394 378V558C2394 562.418 2390.42 566 2386 566H2326C2321.58 566 2318 562.418 2318 558V378Z" fill="url(#paint3_radial_82_1090)"/>
<rect width="284" height="60" rx="16" transform="matrix(-1 0 0 1 3788 313)" fill="url(#paint4_radial_82_1090)"/>
<rect width="284" height="60" rx="16" transform="matrix(-1 0 0 1 3788 569)" fill="url(#paint5_radial_82_1090)"/>
<rect width="284" height="196" rx="32" transform="matrix(-1 0 0 1 3788 373)" fill="url(#paint6_radial_82_1090)"/>
<path d="M3580 381C3580 376.582 3576.42 373 3572 373H3512C3507.58 373 3504 376.582 3504 381V561C3504 565.418 3507.58 569 3512 569H3572C3576.42 569 3580 565.418 3580 561V381Z" fill="url(#paint7_radial_82_1090)"/>
<rect x="2110" y="658" width="284" height="60" rx="16" fill="url(#paint8_radial_82_1090)"/>
<rect x="2110" y="914" width="284" height="60" rx="16" fill="url(#paint9_radial_82_1090)"/>
<rect x="2110" y="718" width="284" height="196" rx="32" fill="url(#paint10_radial_82_1090)"/>
<path d="M2318 726C2318 721.582 2321.58 718 2326 718H2386C2390.42 718 2394 721.582 2394 726V906C2394 910.418 2390.42 914 2386 914H2326C2321.58 914 2318 910.418 2318 906V726Z" fill="url(#paint11_radial_82_1090)"/>
<rect x="1479" y="928" width="287" height="87" rx="16" fill="url(#paint12_radial_82_1090)"/>
<rect x="1479" y="269" width="287" height="87" rx="16" fill="url(#paint13_radial_82_1090)"/>
<rect x="1483" y="356" width="283" height="287" rx="52" fill="url(#paint14_radial_82_1090)"/>
<path d="M1479 364C1479 359.582 1482.58 356 1487 356H1547C1551.42 356 1555 359.582 1555 364V635C1555 639.418 1551.42 643 1547 643H1487C1482.58 643 1479 639.418 1479 635V364Z" fill="url(#paint15_radial_82_1090)"/>
<rect x="1483" y="641" width="283" height="287" rx="52" fill="url(#paint16_radial_82_1090)"/>
<path d="M1479 649C1479 644.582 1482.58 641 1487 641H1547C1551.42 641 1555 644.582 1555 649V920C1555 924.418 1551.42 928 1547 928H1487C1482.58 928 1479 924.418 1479 920V649Z" fill="url(#paint17_radial_82_1090)"/>
<rect x="2494" y="930" width="287" height="87" rx="16" fill="url(#paint18_radial_82_1090)"/>
<rect x="2494" y="269" width="287" height="87" rx="16" fill="url(#paint19_radial_82_1090)"/>
<rect x="2498" y="356" width="283" height="287" rx="52" fill="url(#paint20_radial_82_1090)"/>
<path d="M2494 364C2494 359.582 2497.58 356 2502 356H2562C2566.42 356 2570 359.582 2570 364V635C2570 639.418 2566.42 643 2562 643H2502C2497.58 643 2494 639.418 2494 635V364Z" fill="url(#paint21_radial_82_1090)"/>
<rect x="2498" y="643" width="283" height="287" rx="52" fill="url(#paint22_radial_82_1090)"/>
<path d="M2494 651C2494 646.582 2497.58 643 2502 643H2562C2566.42 643 2570 646.582 2570 651V922C2570 926.418 2566.42 930 2562 930H2502C2497.58 930 2494 926.418 2494 922V651Z" fill="url(#paint23_radial_82_1090)"/>
<rect width="287" height="87" rx="16" transform="matrix(-1 0 0 1 3404 930)" fill="url(#paint24_radial_82_1090)"/>
<rect width="287" height="87" rx="16" transform="matrix(-1 0 0 1 3404 269)" fill="url(#paint25_radial_82_1090)"/>
<rect width="283" height="287" rx="52" transform="matrix(-1 0 0 1 3400 356)" fill="url(#paint26_radial_82_1090)"/>
<path d="M3404 364C3404 359.582 3400.42 356 3396 356H3336C3331.58 356 3328 359.582 3328 364V635C3328 639.418 3331.58 643 3336 643H3396C3400.42 643 3404 639.418 3404 635V364Z" fill="url(#paint27_radial_82_1090)"/>
<rect width="283" height="287" rx="52" transform="matrix(-1 0 0 1 3400 643)" fill="url(#paint28_radial_82_1090)"/>
<path d="M3404 651C3404 646.582 3400.42 643 3396 643H3336C3331.58 643 3328 646.582 3328 651V922C3328 926.418 3331.58 930 3336 930H3396C3400.42 930 3404 926.418 3404 922V651Z" fill="url(#paint29_radial_82_1090)"/>
<rect width="284" height="60" rx="16" transform="matrix(-1 0 0 1 3788 661)" fill="url(#paint30_radial_82_1090)"/>
<rect width="284" height="60" rx="16" transform="matrix(-1 0 0 1 3788 917)" fill="url(#paint31_radial_82_1090)"/>
<rect width="284" height="196" rx="32" transform="matrix(-1 0 0 1 3788 721)" fill="url(#paint32_radial_82_1090)"/>
<path d="M3580 729C3580 724.582 3576.42 721 3572 721H3512C3507.58 721 3504 724.582 3504 729V909C3504 913.418 3507.58 917 3512 917H3572C3576.42 917 3580 913.418 3580 909V729Z" fill="url(#paint33_radial_82_1090)"/>
<rect width="287" height="87" rx="16" transform="matrix(-1 0 0 1 4411 933)" fill="url(#paint34_radial_82_1090)"/>
<rect width="287" height="87" rx="16" transform="matrix(-1 0 0 1 4411 272)" fill="url(#paint35_radial_82_1090)"/>
<rect width="283" height="287" rx="52" transform="matrix(-1 0 0 1 4407 359)" fill="url(#paint36_radial_82_1090)"/>
<path d="M4411 367C4411 362.582 4407.42 359 4403 359H4343C4338.58 359 4335 362.582 4335 367V638C4335 642.418 4338.58 646 4343 646H4403C4407.42 646 4411 642.418 4411 638V367Z" fill="url(#paint37_radial_82_1090)"/>
<rect width="283" height="287" rx="52" transform="matrix(-1 0 0 1 4407 646)" fill="url(#paint38_radial_82_1090)"/>
<path d="M4411 654C4411 649.582 4407.42 646 4403 646H4343C4338.58 646 4335 649.582 4335 654V925C4335 929.418 4338.58 933 4343 933H4403C4407.42 933 4411 929.418 4411 925V654Z" fill="url(#paint39_radial_82_1090)"/>
<rect x="1822" y="391" width="232" height="500" rx="16" fill="url(#paint40_linear_82_1090)"/>
<rect x="2833" y="396" width="232" height="500" rx="16" fill="url(#paint41_linear_82_1090)"/>
<rect x="5183" y="3102" width="340" height="726" rx="16" fill="url(#paint42_linear_82_1090)"/>
<rect x="3840" y="399" width="232" height="500" rx="16" fill="url(#paint43_linear_82_1090)"/>
<path d="M1901.1 692.62V670.84C1903.02 671.2 1907.1 671.26 1913.34 671.02C1924.02 670.66 1932.78 668.26 1939.62 663.82C1948.14 658.42 1953.42 651.4 1955.46 642.76L1955.1 642.58C1949.22 648.46 1940.58 651.4 1929.18 651.4C1918.02 651.4 1908.66 648.04 1901.1 641.32C1893.54 634.6 1889.76 625.6 1889.76 614.32C1889.76 602.44 1894.26 592.42 1903.26 584.26C1912.38 575.98 1923.66 571.84 1937.1 571.84C1952.58 571.84 1964.4 576.76 1972.56 586.6C1980.84 596.32 1984.98 608.44 1984.98 622.96C1984.98 646.12 1978.02 663.82 1964.1 676.06C1951.74 686.86 1935 692.44 1913.88 692.8C1909.2 693.16 1904.94 693.1 1901.1 692.62ZM1936.38 592.9H1936.2C1931.04 592.9 1926.78 594.82 1923.42 598.66C1920.06 602.38 1918.38 607.06 1918.38 612.7C1918.38 617.86 1920 622.18 1923.24 625.66C1926.48 629.14 1931.04 630.88 1936.92 630.88C1944.96 630.88 1950.72 628.18 1954.2 622.78C1955.16 621.22 1955.64 619.54 1955.64 617.74C1955.76 611.02 1954.26 605.2 1951.14 600.28C1948.02 595.36 1943.1 592.9 1936.38 592.9Z" fill="white"/>
<path d="M5369 3318H5335.16L5292.32 3196.68H5323.64L5340.38 3247.62C5346.02 3265.02 5350.22 3279.6 5352.98 3291.36H5353.34C5355.86 3280.44 5360.12 3266.16 5366.12 3248.52L5383.94 3196.68H5414.18L5369 3318ZM5338.61 3412.68H5367.23V3534H5338.61V3412.68ZM5309.43 3750V3630.3C5320.71 3628.5 5334.45 3627.6 5350.65 3627.6C5367.45 3627.6 5380.29 3630.9 5389.17 3637.5C5398.29 3644.34 5402.85 3653.88 5402.85 3666.12C5402.85 3678.6 5399.07 3688.08 5391.51 3694.56C5381.79 3703.44 5367.51 3707.88 5348.67 3707.88C5344.47 3707.88 5340.87 3707.58 5337.87 3706.98V3750H5309.43ZM5337.87 3649.92V3685.2C5340.15 3685.8 5343.75 3686.1 5348.67 3686.1C5356.59 3686.1 5362.83 3684.42 5367.39 3681.06C5372.07 3677.58 5374.41 3672.72 5374.41 3666.48C5374.41 3660.84 5372.31 3656.52 5368.11 3653.52C5364.03 3650.52 5358.27 3649.02 5350.83 3649.02C5344.59 3649.02 5340.27 3649.32 5337.87 3649.92Z" fill="white"/>
<path d="M2886.9 691V599.02H2886.54L2863.5 609.64L2858.82 588.58L2891.22 574H2914.44V691H2886.9ZM3002.22 693.16H3002.04C2986.8 693.16 2975.16 687.58 2967.12 676.42C2959.2 665.14 2955.18 650.5 2955.06 632.5C2955.06 614.62 2959.14 600.04 2967.3 588.76C2975.46 577.48 2987.28 571.84 3002.76 571.84C3018.36 571.84 3030.06 577.42 3037.86 588.58C3045.78 599.74 3049.74 614.2 3049.74 631.96C3049.74 643.72 3048.12 654.1 3044.88 663.1C3041.64 671.98 3036.36 679.24 3029.04 684.88C3021.84 690.4 3012.9 693.16 3002.22 693.16ZM3002.22 672.28H3002.4C3008.4 672.28 3013.02 668.92 3016.26 662.2C3019.5 655.36 3021.12 645.4 3021.12 632.32C3021.12 605.92 3014.88 592.72 3002.4 592.72C2996.64 592.72 2992.08 596.14 2988.72 602.98C2985.36 609.7 2983.68 619.48 2983.68 632.32C2983.56 645.28 2985.18 655.18 2988.54 662.02C2991.9 668.86 2996.46 672.28 3002.22 672.28Z" fill="white"/>
<path d="M3893.9 691V599.02H3893.54L3870.5 609.64L3865.82 588.58L3898.22 574H3921.44V691H3893.9ZM4001.48 691V599.02H4001.12L3978.08 609.64L3973.4 588.58L4005.8 574H4029.02V691H4001.48Z" fill="white"/>
<circle cx="2974" cy="2837" r="418" fill="#E31E24"/>
<path d="M2900.08 2962.04V2750.2C2918.43 2747 2941.15 2745.4 2968.24 2745.4C2997.89 2745.4 3020.19 2749.13 3035.12 2756.6C3054.32 2765.35 3063.92 2779.85 3063.92 2800.12C3063.92 2809.93 3060.83 2818.89 3054.64 2827C3048.45 2835.11 3039.28 2841.29 3027.12 2845.56V2846.2C3040.13 2849.61 3050.8 2856.01 3059.12 2865.4C3067.44 2874.57 3071.6 2885.99 3071.6 2899.64C3071.6 2918.63 3063.39 2934.31 3046.96 2946.68C3029.47 2959.27 2999.6 2965.56 2957.36 2965.56C2936.03 2965.56 2916.93 2964.39 2900.08 2962.04ZM2950.64 2783.8V2831.8H2968.88C2983.17 2831.8 2993.95 2829.56 3001.2 2825.08C3008.67 2820.6 3012.4 2814.31 3012.4 2806.2C3012.4 2790.2 2999.81 2782.2 2974.64 2782.2C2963.55 2782.2 2955.55 2782.73 2950.64 2783.8ZM2950.64 2867.96V2927.16C2954.27 2927.8 2961.52 2928.12 2972.4 2928.12C2985.63 2928.12 2996.4 2925.67 3004.72 2920.76C3013.25 2915.85 3017.52 2908.07 3017.52 2897.4C3017.52 2877.77 3001.63 2867.96 2969.84 2867.96H2950.64Z" fill="white"/>
<circle cx="1734.65" cy="1706.98" r="198.7" transform="rotate(137.663 1734.65 1706.98)" fill="url(#paint44_linear_82_1090)"/>
<rect x="2108.58" y="1513.24" width="210.08" height="140.053" rx="32" transform="rotate(79.6555 2108.58 1513.24)" fill="#D9D9D9"/>
<rect x="1524.56" y="1448.11" width="210.08" height="140.053" rx="32" transform="rotate(109.656 1524.56 1448.11)" fill="#D9D9D9"/>
<rect x="1493.37" y="1862.22" width="210.08" height="140.053" rx="32" transform="rotate(49.6555 1493.37 1862.22)" fill="#D9D9D9"/>
<circle cx="2927" cy="1823" r="227" fill="url(#paint45_linear_82_1090)"/>
<rect x="3067.84" y="2273.57" width="240" height="160" rx="32" transform="rotate(-180 3067.84 2273.57)" fill="#D9D9D9"/>
<rect x="3260.84" y="1630.57" width="240" height="160" rx="32" transform="rotate(-150 3260.84 1630.57)" fill="#D9D9D9"/>
<rect x="2801.85" y="1510.56" width="240" height="160" rx="32" transform="rotate(150 2801.85 1510.56)" fill="#D9D9D9"/>
<circle cx="2204" cy="2662" r="227" fill="url(#paint46_linear_82_1090)"/>
<rect x="2318" y="3112.57" width="240" height="160" rx="32" transform="rotate(-180 2318 3112.57)" fill="#D9D9D9"/>
<rect x="2537.84" y="2469.57" width="240" height="160" rx="32" transform="rotate(-150 2537.84 2469.57)" fill="#D9D9D9"/>
<rect x="2078.85" y="2349.56" width="240" height="160" rx="32" transform="rotate(150 2078.85 2349.56)" fill="#D9D9D9"/>
<circle cx="2127.48" cy="3554.48" r="227" transform="rotate(-124.334 2127.48 3554.48)" fill="url(#paint47_linear_82_1090)"/>
<rect x="2428.36" y="3170" width="240" height="160" rx="32" transform="rotate(55.6662 2428.36 3170)" fill="#D9D9D9"/>
<rect x="1788.54" y="3373.29" width="240" height="160" rx="32" transform="rotate(85.6662 1788.54 3373.29)" fill="#D9D9D9"/>
<rect x="1948.33" y="3820" width="240" height="160" rx="32" transform="rotate(25.6662 1948.33 3820)" fill="#D9D9D9"/>
<circle cx="2807.8" cy="3838.03" r="227" transform="rotate(-173.267 2807.8 3838.03)" fill="url(#paint48_linear_82_1090)"/>
<rect x="2753.37" y="3349" width="240" height="160" rx="32" transform="rotate(6.73262 2753.37 3349)" fill="#D9D9D9"/>
<rect x="2453.69" y="3990" width="240" height="160" rx="32" transform="rotate(36.7326 2453.69 3990)" fill="#D9D9D9"/>
<rect x="2895.46" y="4162.98" width="240" height="160" rx="32" transform="rotate(-23.2674 2895.46 4162.98)" fill="#D9D9D9"/>
<circle cx="3504.63" cy="3664.94" r="227" transform="rotate(151.35 3504.63 3664.94)" fill="url(#paint49_linear_82_1090)"/>
<rect x="3155" y="3317.07" width="240" height="160" rx="32" transform="rotate(-28.6504 3155 3317.07)" fill="#D9D9D9"/>
<rect x="3293.93" y="3973.88" width="240" height="160" rx="32" transform="rotate(1.34961 3293.93 3973.88)" fill="#D9D9D9"/>
<rect x="3754.26" y="3859.11" width="240" height="160" rx="32" transform="rotate(-58.6504 3754.26 3859.11)" fill="#D9D9D9"/>
<circle cx="4361.25" cy="3729.63" r="227" transform="rotate(-5.15359 4361.25 3729.63)" fill="url(#paint50_linear_82_1090)"/>
<rect x="4542" y="4165.72" width="240" height="160" rx="32" transform="rotate(174.846 4542 4165.72)" fill="#D9D9D9"/>
<rect x="4676.46" y="3507.99" width="240" height="160" rx="32" transform="rotate(-155.154 4676.46 3507.99)" fill="#D9D9D9"/>
<rect x="4208.54" y="3429.7" width="240" height="160" rx="32" transform="rotate(144.846 4208.54 3429.7)" fill="#D9D9D9"/>
<circle cx="3772.78" cy="2138.17" r="227" transform="rotate(60 3772.78 2138.17)" fill="url(#paint51_linear_82_1090)"/>
<rect x="3448" y="2506.43" width="240" height="160" rx="32" transform="rotate(-120 3448 2506.43)" fill="#D9D9D9"/>
<rect x="4101.35" y="2352.07" width="240" height="160" rx="32" transform="rotate(-90 4101.35 2352.07)" fill="#D9D9D9"/>
<rect x="3975.78" y="1894.56" width="240" height="160" rx="32" transform="rotate(-150 3975.78 1894.56)" fill="#D9D9D9"/>
<path d="M5609.38 3874C5609.38 3882.84 5616.54 3890 5625.38 3890L5921.38 3890C5930.21 3890 5937.38 3882.84 5937.38 3874L5937.38 3813L5625.38 3813C5616.54 3813 5609.38 3820.16 5609.38 3829L5609.38 3874Z" fill="url(#paint52_radial_82_1090)"/>
<path d="M5097 2725.16C5097 2720.74 5093.42 2717.16 5089 2717.16H5037C5032.58 2717.16 5029 2720.74 5029 2725.16V3037.16C5029 3041.58 5032.58 3045.16 5037 3045.16H5089C5093.42 3045.16 5097 3041.58 5097 3037.16V2725.16Z" fill="url(#paint53_radial_82_1090)"/>
<path d="M5097.21 3013C5097.21 3030.67 5111.54 3045 5129.21 3045H5321.21C5338.89 3045 5353.21 3030.67 5353.21 3013V2789H5097.21V3013Z" fill="url(#paint54_radial_82_1090)"/>
<path d="M5353.21 3013C5353.21 3030.67 5367.54 3045 5385.21 3045H5577.21C5594.89 3045 5609.21 3030.67 5609.21 3013V2789H5353.21V3013Z" fill="url(#paint55_radial_82_1090)"/>
<path d="M5865.21 3045H5641.21C5623.54 3045 5609.21 3030.67 5609.21 3013V2789H5865.21V3045Z" fill="url(#paint56_radial_82_1090)"/>
<path d="M5609.21 3077C5609.21 3059.33 5623.54 3045 5641.21 3045H5865.21V3301H5641.21C5623.54 3301 5609.21 3286.67 5609.21 3269V3077Z" fill="url(#paint57_radial_82_1090)"/>
<path d="M5609.21 3333C5609.21 3315.33 5623.54 3301 5641.21 3301H5865.21V3557H5641.21C5623.54 3557 5609.21 3542.67 5609.21 3525V3333Z" fill="url(#paint58_radial_82_1090)"/>
<path d="M5609.21 3589C5609.21 3571.33 5623.54 3557 5641.21 3557H5865.21V3813H5641.21C5623.54 3813 5609.21 3798.67 5609.21 3781V3589Z" fill="url(#paint59_radial_82_1090)"/>
<path d="M5937.21 2777C5937.21 2772.58 5933.63 2769 5929.21 2769H5873.21C5868.8 2769 5865.21 2772.58 5865.21 2777V3813H5937.21V2777Z" fill="url(#paint60_radial_82_1090)"/>
<path d="M5105.21 2717C5100.8 2717 5097.21 2720.58 5097.21 2725L5097.21 2781C5097.21 2785.42 5100.8 2789 5105.21 2789L5929.21 2789C5933.63 2789 5937.21 2785.42 5937.21 2781L5937.21 2725C5937.21 2720.58 5933.63 2717 5929.21 2717L5105.21 2717Z" fill="url(#paint61_radial_82_1090)"/>
<path d="M1726.9 1752V1660.02H1726.54L1703.5 1670.64L1698.82 1649.58L1731.22 1635H1754.44V1752H1726.9Z" fill="white"/>
<path d="M2970.92 1868H2881.64V1851.08L2897.84 1837.94C2913.44 1824.98 2924.3 1815.14 2930.42 1808.42C2936.54 1801.58 2939.66 1795.16 2939.78 1789.16C2939.78 1784 2938.1 1779.8 2934.74 1776.56C2931.38 1773.32 2926.22 1771.7 2919.26 1771.7C2910.38 1771.7 2901.2 1775.3 2891.72 1782.5L2882.9 1762.52C2894.3 1753.4 2908.4 1748.84 2925.2 1748.84C2938.52 1748.84 2949.02 1752.26 2956.7 1759.1C2964.5 1765.94 2968.4 1775.06 2968.4 1786.46C2968.4 1795.22 2965.58 1803.44 2959.94 1811.12C2954.42 1818.8 2946.5 1826.84 2936.18 1835.24L2923.94 1844.42V1844.78H2970.92V1868Z" fill="white"/>
<path d="M2158.74 2699.98L2165.04 2678.74C2175.24 2684.02 2185.44 2686.66 2195.64 2686.66C2202.96 2686.66 2208.54 2685.28 2212.38 2682.52C2216.22 2679.64 2218.14 2675.98 2218.14 2671.54C2218.14 2666.38 2215.74 2662.42 2210.94 2659.66C2206.26 2656.78 2200.62 2655.34 2194.02 2655.34H2180.16V2634.82H2193.66C2199.18 2634.82 2204.04 2633.8 2208.24 2631.76C2212.56 2629.6 2214.72 2626.36 2214.72 2622.04C2214.72 2618.56 2213.16 2615.74 2210.04 2613.58C2206.92 2611.3 2202.36 2610.16 2196.36 2610.16C2186.64 2610.16 2177.4 2612.74 2168.64 2617.9L2162.16 2597.56C2166.48 2594.8 2172.24 2592.52 2179.44 2590.72C2186.76 2588.8 2194.44 2587.84 2202.48 2587.84C2215.32 2587.84 2225.4 2590.66 2232.72 2596.3C2240.16 2601.82 2243.88 2608.84 2243.88 2617.36C2243.88 2630.68 2236.26 2639.8 2221.02 2644.72V2645.08C2228.7 2646.16 2235.12 2649.28 2240.28 2654.44C2245.56 2659.6 2248.2 2665.84 2248.2 2673.16C2248.2 2683.96 2243.58 2692.66 2234.34 2699.26C2225.1 2705.86 2212.8 2709.16 2197.44 2709.16C2181.24 2709.16 2168.34 2706.1 2158.74 2699.98Z" fill="white"/>
<path d="M2165.34 3482V3505.22H2115.12L2112.6 3522.14C2115.6 3521.78 2118.6 3521.6 2121.6 3521.6C2135.4 3521.6 2146.68 3524.36 2155.44 3529.88C2165.76 3536.48 2170.92 3546.62 2170.92 3560.3C2170.92 3571.58 2166.06 3581.24 2156.34 3589.28C2146.62 3597.2 2133.66 3601.16 2117.46 3601.16C2103.06 3601.16 2091.06 3598.76 2081.46 3593.96L2086.86 3572.72C2095.5 3577.04 2105.34 3579.2 2116.38 3579.2C2122.86 3579.2 2128.62 3577.76 2133.66 3574.88C2138.7 3572 2141.22 3567.68 2141.22 3561.92C2141.22 3549.32 2129.4 3543.02 2105.76 3543.02C2100.12 3543.02 2094.06 3543.44 2087.58 3544.28L2095.5 3482H2165.34Z" fill="white"/>
<path d="M2842.38 3776.38V3798.16C2839.26 3797.8 2835.6 3797.8 2831.4 3798.16C2818.68 3798.88 2808.9 3801.7 2802.06 3806.62C2795.22 3811.54 2790.96 3817.66 2789.28 3824.98H2789.64C2796.48 3818.86 2805.54 3815.8 2816.82 3815.8C2827.86 3815.8 2837.16 3819.28 2844.72 3826.24C2852.4 3833.08 2856.24 3842.56 2856.24 3854.68C2856.24 3866.68 2851.8 3876.76 2842.92 3884.92C2834.04 3893.08 2823.06 3897.16 2809.98 3897.16C2793.78 3897.16 2781.36 3892.24 2772.72 3882.4C2764.2 3872.44 2759.94 3860.08 2759.94 3845.32C2759.94 3834.88 2761.8 3825.22 2765.52 3816.34C2769.24 3807.34 2774.46 3799.84 2781.18 3793.84C2794.02 3782.56 2810.82 3776.68 2831.58 3776.2C2834.1 3775.96 2837.7 3776.02 2842.38 3776.38ZM2809.44 3876.1H2809.62C2814.78 3876.1 2818.98 3874.3 2822.22 3870.7C2825.46 3866.98 2827.08 3862.3 2827.08 3856.66C2827.08 3850.78 2825.4 3845.92 2822.04 3842.08C2818.68 3838.12 2813.88 3836.14 2807.64 3836.14C2803.44 3836.14 2799.66 3837.22 2796.3 3839.38C2793.06 3841.42 2790.72 3844.06 2789.28 3847.3C2788.44 3848.86 2788.02 3850.84 2788.02 3853.24C2788.38 3859.6 2790.36 3865 2793.96 3869.44C2797.68 3873.88 2802.84 3876.1 2809.44 3876.1Z" fill="white"/>
<path d="M3460.54 3614H3549.46V3631.82L3497.44 3731H3466.3L3518.68 3637.58V3637.22H3460.54V3614Z" fill="white"/>
<path d="M3036.42 5022.46V4903.3C3046.74 4901.5 3059.52 4900.6 3074.76 4900.6C3091.44 4900.6 3103.98 4902.7 3112.38 4906.9C3123.18 4911.82 3128.58 4919.98 3128.58 4931.38C3128.58 4936.9 3126.84 4941.94 3123.36 4946.5C3119.88 4951.06 3114.72 4954.54 3107.88 4956.94V4957.3C3115.2 4959.22 3121.2 4962.82 3125.88 4968.1C3130.56 4973.26 3132.9 4979.68 3132.9 4987.36C3132.9 4998.04 3128.28 5006.86 3119.04 5013.82C3109.2 5020.9 3092.4 5024.44 3068.64 5024.44C3056.64 5024.44 3045.9 5023.78 3036.42 5022.46ZM3064.86 4922.2V4949.2H3075.12C3083.16 4949.2 3089.22 4947.94 3093.3 4945.42C3097.5 4942.9 3099.6 4939.36 3099.6 4934.8C3099.6 4925.8 3092.52 4921.3 3078.36 4921.3C3072.12 4921.3 3067.62 4921.6 3064.86 4922.2ZM3064.86 4969.54V5002.84C3066.9 5003.2 3070.98 5003.38 3077.1 5003.38C3084.54 5003.38 3090.6 5002 3095.28 4999.24C3100.08 4996.48 3102.48 4992.1 3102.48 4986.1C3102.48 4975.06 3093.54 4969.54 3075.66 4969.54H3064.86ZM3221.59 4990.6H3182.35L3172.81 5023H3142.57L3183.07 4901.68H3221.59L3264.07 5023H3232.39L3221.59 4990.6ZM3186.85 4969.54H3216.91L3208.09 4943.62C3206.53 4939.06 3204.31 4931.74 3201.43 4921.66H3201.07C3200.47 4923.58 3199.51 4927.12 3198.19 4932.28C3196.99 4937.32 3195.97 4941.1 3195.13 4943.62L3186.85 4969.54ZM3281.11 5023V4903.3C3292.87 4901.5 3306.25 4900.6 3321.25 4900.6C3340.21 4900.6 3354.07 4903.84 3362.83 4910.32C3370.63 4916.2 3374.53 4924.72 3374.53 4935.88C3374.53 4943.32 3372.19 4949.68 3367.51 4954.96C3362.95 4960.24 3357.85 4963.78 3352.21 4965.58V4966.3C3359.53 4969.3 3365.11 4976.62 3368.95 4988.26C3369.91 4991.5 3371.17 4996 3372.73 5001.76C3374.29 5007.52 3375.61 5012.14 3376.69 5015.62C3377.77 5019.1 3378.67 5021.56 3379.39 5023H3350.05C3347.65 5018.68 3344.65 5009.32 3341.05 4994.92C3339.25 4987.48 3336.73 4982.44 3333.49 4979.8C3330.37 4977.16 3325.63 4975.78 3319.27 4975.66H3309.55V5023H3281.11ZM3309.55 4922.56V4955.32H3322.51C3329.83 4955.32 3335.59 4953.82 3339.79 4950.82C3343.99 4947.7 3346.09 4943.5 3346.09 4938.22C3346.09 4932.7 3344.11 4928.56 3340.15 4925.8C3336.31 4923.04 3330.97 4921.66 3324.13 4921.66C3318.01 4921.66 3313.15 4921.96 3309.55 4922.56Z" fill="white"/>
<path d="M4361.36 3655.84H4361.54C4375.7 3655.84 4386.2 3658.96 4393.04 3665.2C4399.88 3671.44 4403.3 3678.46 4403.3 3686.26C4403.3 3691.78 4401.74 3696.82 4398.62 3701.38C4395.62 3705.94 4391.3 3709.54 4385.66 3712.18V3712.54C4392.14 3714.82 4397.54 3718.36 4401.86 3723.16C4406.18 3727.96 4408.34 3733.96 4408.34 3741.16C4408.34 3751.96 4403.96 3760.66 4395.2 3767.26C4386.56 3773.86 4374.86 3777.16 4360.1 3777.16C4344.86 3777.16 4333.28 3773.86 4325.36 3767.26C4317.44 3760.54 4313.48 3752.98 4313.48 3744.58C4313.48 3731.14 4320.8 3721.48 4335.44 3715.6V3715.24C4323.56 3709.48 4317.62 3700.9 4317.62 3689.5C4317.62 3679.54 4321.76 3671.44 4330.04 3665.2C4338.32 3658.96 4348.76 3655.84 4361.36 3655.84ZM4361.18 3757.36H4361.36C4366.4 3757.36 4370.54 3756.04 4373.78 3753.4C4377.14 3750.76 4378.82 3747.46 4378.82 3743.5C4378.82 3734.14 4372.1 3728.08 4358.66 3725.32C4353.74 3726.16 4349.9 3728.08 4347.14 3731.08C4344.5 3733.96 4343.18 3737.44 4343.18 3741.52C4343.06 3745.72 4344.68 3749.44 4348.04 3752.68C4351.52 3755.8 4355.9 3757.36 4361.18 3757.36ZM4360.46 3675.28H4360.28C4355.48 3675.28 4351.7 3676.54 4348.94 3679.06C4346.18 3681.58 4344.8 3684.7 4344.8 3688.42C4344.8 3695.62 4350.86 3700.78 4362.98 3703.9C4366.58 3703.18 4369.64 3701.5 4372.16 3698.86C4374.8 3696.22 4376.12 3693.1 4376.12 3689.5C4376.12 3685.66 4374.8 3682.36 4372.16 3679.6C4369.52 3676.72 4365.62 3675.28 4360.46 3675.28Z" fill="white"/>
<path d="M3802.2 2194H3774.66V2166.1H3718.86V2147.74L3765.12 2077H3802.2V2145.04H3816.96V2166.1H3802.2V2194ZM3746.04 2145.04H3774.66V2118.58C3774.66 2114.02 3774.9 2106.46 3775.38 2095.9H3774.66C3773.58 2097.94 3771.72 2101.54 3769.08 2106.7C3766.56 2111.86 3764.52 2115.88 3762.96 2118.76L3746.22 2144.68L3746.04 2145.04Z" fill="white"/>
<rect x="194" y="1334" width="1085" height="779" fill="#D9D9D9"/>
<rect x="194" y="2113" width="629" height="1776" fill="#D9D9D9"/>
<path d="M194 3879H1024.5C1275.51 3879 1479 4082.49 1479 4333.5V4788H194V3879Z" fill="#D9D9D9"/>
<path d="M1935 4431C1935 4413.33 1949.33 4399 1967 4399H2163C2180.67 4399 2195 4413.33 2195 4431V4599H1935V4431Z" fill="#D9D9D9"/>
<path d="M2646 4431C2646 4413.33 2660.33 4399 2678 4399H2874C2891.67 4399 2906 4413.33 2906 4431V4599H2646V4431Z" fill="#D9D9D9"/>
<path d="M3378 4431C3378 4413.33 3392.33 4399 3410 4399H3606C3623.67 4399 3638 4413.33 3638 4431V4599H3378V4431Z" fill="#D9D9D9"/>
<path d="M4134 4431C4134 4413.33 4148.33 4399 4166 4399H4362C4379.67 4399 4394 4413.33 4394 4431V4599H4134V4431Z" fill="#D9D9D9"/>
<path d="M2313 4431C2313 4413.33 2327.33 4399 2345 4399H2541C2558.67 4399 2573 4413.33 2573 4431V4599H2313V4431Z" fill="#D9D9D9"/>
<path d="M3024 4431C3024 4413.33 3038.33 4399 3056 4399H3252C3269.67 4399 3284 4413.33 3284 4431V4599H3024V4431Z" fill="#D9D9D9"/>
<path d="M3756 4431C3756 4413.33 3770.33 4399 3788 4399H3984C4001.67 4399 4016 4413.33 4016 4431V4599H3756V4431Z" fill="#D9D9D9"/>
<path d="M4512 4431C4512 4413.33 4526.33 4399 4544 4399H4740C4757.67 4399 4772 4413.33 4772 4431V4599H4512V4431Z" fill="#D9D9D9"/>
<path d="M1935 4647H4973C5003.93 4647 5029 4672.07 5029 4703V4813H1935V4647Z" fill="#D9D9D9"/>
<path d="M1935 5099H5029V5265H1935V5099Z" fill="#D9D9D9"/>
<path d="M4892 4737H5029V5265H4892V4737Z" fill="#D9D9D9"/>
<path d="M1311 3889C1484.42 3889 1625 3491.21 1625 3000.5C1625 2509.79 1484.42 2112 1311 2112C1300.2 2112 1289.52 2113.54 1279 2116.56V2113H728V3889H1279V3884.44C1289.52 3887.46 1300.2 3889 1311 3889Z" fill="#E31E24"/>
<path d="M1208.2 3044.4H1138.44L1121.48 3102H1067.72L1139.72 2886.32H1208.2L1283.72 3102H1227.4L1208.2 3044.4ZM1146.44 3006.96H1199.88L1184.2 2960.88C1181.43 2952.77 1177.48 2939.76 1172.36 2921.84H1171.72C1170.65 2925.25 1168.95 2931.55 1166.6 2940.72C1164.47 2949.68 1162.65 2956.4 1161.16 2960.88L1146.44 3006.96Z" fill="white"/>
<defs>
<radialGradient id="paint0_radial_82_1090" cx="0" cy="0" r="1" gradientUnits="userSpaceOnUse" gradientTransform="translate(2252 340) scale(142 30)">
<stop stop-color="white"/>
<stop offset="1" stop-color="#ABABAB"/>
</radialGradient>
<radialGradient id="paint1_radial_82_1090" cx="0" cy="0" r="1" gradientUnits="userSpaceOnUse" gradientTransform="translate(2252 596) scale(142 30)">
<stop stop-color="white"/>
<stop offset="1" stop-color="#ABABAB"/>
</radialGradient>
<radialGradient id="paint2_radial_82_1090" cx="0" cy="0" r="1" gradientUnits="userSpaceOnUse" gradientTransform="translate(2252 468) scale(142 98)">
<stop stop-color="white"/>
<stop offset="1" stop-color="#9E9E9E"/>
</radialGradient>
<radialGradient id="paint3_radial_82_1090" cx="0" cy="0" r="1" gradientUnits="userSpaceOnUse" gradientTransform="translate(2356 468) scale(38 98)">
<stop stop-color="white"/>
<stop offset="1" stop-color="#BDBDBD"/>
</radialGradient>
<radialGradient id="paint4_radial_82_1090" cx="0" cy="0" r="1" gradientUnits="userSpaceOnUse" gradientTransform="translate(142 30) scale(142 30)">
<stop stop-color="white"/>
<stop offset="1" stop-color="#ABABAB"/>
</radialGradient>
<radialGradient id="paint5_radial_82_1090" cx="0" cy="0" r="1" gradientUnits="userSpaceOnUse" gradientTransform="translate(142 30) scale(142 30)">
<stop stop-color="white"/>
<stop offset="1" stop-color="#ABABAB"/>
</radialGradient>
<radialGradient id="paint6_radial_82_1090" cx="0" cy="0" r="1" gradientUnits="userSpaceOnUse" gradientTransform="translate(142 98) scale(142 98)">
<stop stop-color="white"/>
<stop offset="1" stop-color="#9E9E9E"/>
</radialGradient>
<radialGradient id="paint7_radial_82_1090" cx="0" cy="0" r="1" gradientUnits="userSpaceOnUse" gradientTransform="translate(3542 471) rotate(180) scale(38 98)">
<stop stop-color="white"/>
<stop offset="1" stop-color="#BDBDBD"/>
</radialGradient>
<radialGradient id="paint8_radial_82_1090" cx="0" cy="0" r="1" gradientUnits="userSpaceOnUse" gradientTransform="translate(2252 688) scale(142 30)">
<stop stop-color="white"/>
<stop offset="1" stop-color="#ABABAB"/>
</radialGradient>
<radialGradient id="paint9_radial_82_1090" cx="0" cy="0" r="1" gradientUnits="userSpaceOnUse" gradientTransform="translate(2252 944) scale(142 30)">
<stop stop-color="white"/>
<stop offset="1" stop-color="#ABABAB"/>
</radialGradient>
<radialGradient id="paint10_radial_82_1090" cx="0" cy="0" r="1" gradientUnits="userSpaceOnUse" gradientTransform="translate(2252 816) scale(142 98)">
<stop stop-color="white"/>
<stop offset="1" stop-color="#9E9E9E"/>
</radialGradient>
<radialGradient id="paint11_radial_82_1090" cx="0" cy="0" r="1" gradientUnits="userSpaceOnUse" gradientTransform="translate(2356 816) scale(38 98)">
<stop stop-color="white"/>
<stop offset="1" stop-color="#BDBDBD"/>
</radialGradient>
<radialGradient id="paint12_radial_82_1090" cx="0" cy="0" r="1" gradientUnits="userSpaceOnUse" gradientTransform="translate(1622.5 971.5) scale(143.5 43.5)">
<stop stop-color="white"/>
<stop offset="1" stop-color="#ABABAB"/>
</radialGradient>
<radialGradient id="paint13_radial_82_1090" cx="0" cy="0" r="1" gradientUnits="userSpaceOnUse" gradientTransform="translate(1622.5 312.5) scale(143.5 43.5)">
<stop stop-color="white"/>
<stop offset="1" stop-color="#ABABAB"/>
</radialGradient>
<radialGradient id="paint14_radial_82_1090" cx="0" cy="0" r="1" gradientUnits="userSpaceOnUse" gradientTransform="translate(1624.5 499.5) scale(141.5 143.5)">
<stop stop-color="white"/>
<stop offset="1" stop-color="#9E9E9E"/>
</radialGradient>
<radialGradient id="paint15_radial_82_1090" cx="0" cy="0" r="1" gradientUnits="userSpaceOnUse" gradientTransform="translate(1517 499.5) scale(38 143.5)">
<stop stop-color="white"/>
<stop offset="1" stop-color="#BDBDBD"/>
</radialGradient>
<radialGradient id="paint16_radial_82_1090" cx="0" cy="0" r="1" gradientUnits="userSpaceOnUse" gradientTransform="translate(1624.5 784.5) scale(141.5 143.5)">
<stop stop-color="white"/>
<stop offset="1" stop-color="#9E9E9E"/>
</radialGradient>
<radialGradient id="paint17_radial_82_1090" cx="0" cy="0" r="1" gradientUnits="userSpaceOnUse" gradientTransform="translate(1517 784.5) scale(38 143.5)">
<stop stop-color="white"/>
<stop offset="1" stop-color="#BDBDBD"/>
</radialGradient>
<radialGradient id="paint18_radial_82_1090" cx="0" cy="0" r="1" gradientUnits="userSpaceOnUse" gradientTransform="translate(2637.5 973.5) scale(143.5 43.5)">
<stop stop-color="white"/>
<stop offset="1" stop-color="#ABABAB"/>
</radialGradient>
<radialGradient id="paint19_radial_82_1090" cx="0" cy="0" r="1" gradientUnits="userSpaceOnUse" gradientTransform="translate(2637.5 312.5) scale(143.5 43.5)">
<stop stop-color="white"/>
<stop offset="1" stop-color="#ABABAB"/>
</radialGradient>
<radialGradient id="paint20_radial_82_1090" cx="0" cy="0" r="1" gradientUnits="userSpaceOnUse" gradientTransform="translate(2639.5 499.5) scale(141.5 143.5)">
<stop stop-color="white"/>
<stop offset="1" stop-color="#9E9E9E"/>
</radialGradient>
<radialGradient id="paint21_radial_82_1090" cx="0" cy="0" r="1" gradientUnits="userSpaceOnUse" gradientTransform="translate(2532 499.5) scale(38 143.5)">
<stop stop-color="white"/>
<stop offset="1" stop-color="#BDBDBD"/>
</radialGradient>
<radialGradient id="paint22_radial_82_1090" cx="0" cy="0" r="1" gradientUnits="userSpaceOnUse" gradientTransform="translate(2639.5 786.5) scale(141.5 143.5)">
<stop stop-color="white"/>
<stop offset="1" stop-color="#9E9E9E"/>
</radialGradient>
<radialGradient id="paint23_radial_82_1090" cx="0" cy="0" r="1" gradientUnits="userSpaceOnUse" gradientTransform="translate(2532 786.5) scale(38 143.5)">
<stop stop-color="white"/>
<stop offset="1" stop-color="#BDBDBD"/>
</radialGradient>
<radialGradient id="paint24_radial_82_1090" cx="0" cy="0" r="1" gradientUnits="userSpaceOnUse" gradientTransform="translate(143.5 43.5) scale(143.5 43.5)">
<stop stop-color="white"/>
<stop offset="1" stop-color="#ABABAB"/>
</radialGradient>
<radialGradient id="paint25_radial_82_1090" cx="0" cy="0" r="1" gradientUnits="userSpaceOnUse" gradientTransform="translate(143.5 43.5) scale(143.5 43.5)">
<stop stop-color="white"/>
<stop offset="1" stop-color="#ABABAB"/>
</radialGradient>
<radialGradient id="paint26_radial_82_1090" cx="0" cy="0" r="1" gradientUnits="userSpaceOnUse" gradientTransform="translate(141.5 143.5) scale(141.5 143.5)">
<stop stop-color="white"/>
<stop offset="1" stop-color="#9E9E9E"/>
</radialGradient>
<radialGradient id="paint27_radial_82_1090" cx="0" cy="0" r="1" gradientUnits="userSpaceOnUse" gradientTransform="translate(3366 499.5) rotate(180) scale(38 143.5)">
<stop stop-color="white"/>
<stop offset="1" stop-color="#BDBDBD"/>
</radialGradient>
<radialGradient id="paint28_radial_82_1090" cx="0" cy="0" r="1" gradientUnits="userSpaceOnUse" gradientTransform="translate(141.5 143.5) scale(141.5 143.5)">
<stop stop-color="white"/>
<stop offset="1" stop-color="#9E9E9E"/>
</radialGradient>
<radialGradient id="paint29_radial_82_1090" cx="0" cy="0" r="1" gradientUnits="userSpaceOnUse" gradientTransform="translate(3366 786.5) rotate(180) scale(38 143.5)">
<stop stop-color="white"/>
<stop offset="1" stop-color="#BDBDBD"/>
</radialGradient>
<radialGradient id="paint30_radial_82_1090" cx="0" cy="0" r="1" gradientUnits="userSpaceOnUse" gradientTransform="translate(142 30) scale(142 30)">
<stop stop-color="white"/>
<stop offset="1" stop-color="#ABABAB"/>
</radialGradient>
<radialGradient id="paint31_radial_82_1090" cx="0" cy="0" r="1" gradientUnits="userSpaceOnUse" gradientTransform="translate(142 30) scale(142 30)">
<stop stop-color="white"/>
<stop offset="1" stop-color="#ABABAB"/>
</radialGradient>
<radialGradient id="paint32_radial_82_1090" cx="0" cy="0" r="1" gradientUnits="userSpaceOnUse" gradientTransform="translate(142 98) scale(142 98)">
<stop stop-color="white"/>
<stop offset="1" stop-color="#9E9E9E"/>
</radialGradient>
<radialGradient id="paint33_radial_82_1090" cx="0" cy="0" r="1" gradientUnits="userSpaceOnUse" gradientTransform="translate(3542 819) rotate(180) scale(38 98)">
<stop stop-color="white"/>
<stop offset="1" stop-color="#BDBDBD"/>
</radialGradient>
<radialGradient id="paint34_radial_82_1090" cx="0" cy="0" r="1" gradientUnits="userSpaceOnUse" gradientTransform="translate(143.5 43.5) scale(143.5 43.5)">
<stop stop-color="white"/>
<stop offset="1" stop-color="#ABABAB"/>
</radialGradient>
<radialGradient id="paint35_radial_82_1090" cx="0" cy="0" r="1" gradientUnits="userSpaceOnUse" gradientTransform="translate(143.5 43.5) scale(143.5 43.5)">
<stop stop-color="white"/>
<stop offset="1" stop-color="#ABABAB"/>
</radialGradient>
<radialGradient id="paint36_radial_82_1090" cx="0" cy="0" r="1" gradientUnits="userSpaceOnUse" gradientTransform="translate(141.5 143.5) scale(141.5 143.5)">
<stop stop-color="white"/>
<stop offset="1" stop-color="#9E9E9E"/>
</radialGradient>
<radialGradient id="paint37_radial_82_1090" cx="0" cy="0" r="1" gradientUnits="userSpaceOnUse" gradientTransform="translate(4373 502.5) rotate(180) scale(38 143.5)">
<stop stop-color="white"/>
<stop offset="1" stop-color="#BDBDBD"/>
</radialGradient>
<radialGradient id="paint38_radial_82_1090" cx="0" cy="0" r="1" gradientUnits="userSpaceOnUse" gradientTransform="translate(141.5 143.5) scale(141.5 143.5)">
<stop stop-color="white"/>
<stop offset="1" stop-color="#9E9E9E"/>
</radialGradient>
<radialGradient id="paint39_radial_82_1090" cx="0" cy="0" r="1" gradientUnits="userSpaceOnUse" gradientTransform="translate(4373 789.5) rotate(180) scale(38 143.5)">
<stop stop-color="white"/>
<stop offset="1" stop-color="#BDBDBD"/>
</radialGradient>
<linearGradient id="paint40_linear_82_1090" x1="1825.4" y1="394.992" x2="2059.5" y2="880.52" gradientUnits="userSpaceOnUse">
<stop stop-color="#464446"/>
<stop offset="1" stop-color="#797979"/>
</linearGradient>
<linearGradient id="paint41_linear_82_1090" x1="2836.4" y1="399.992" x2="3070.5" y2="885.52" gradientUnits="userSpaceOnUse">
<stop stop-color="#464446"/>
<stop offset="1" stop-color="#797979"/>
</linearGradient>
<linearGradient id="paint42_linear_82_1090" x1="5187.98" y1="3107.8" x2="5525.93" y2="3815.23" gradientUnits="userSpaceOnUse">
<stop stop-color="#464446"/>
<stop offset="1" stop-color="#797979"/>
</linearGradient>
<linearGradient id="paint43_linear_82_1090" x1="3843.4" y1="402.992" x2="4077.5" y2="888.52" gradientUnits="userSpaceOnUse">
<stop stop-color="#464446"/>
<stop offset="1" stop-color="#797979"/>
</linearGradient>
<linearGradient id="paint44_linear_82_1090" x1="1541.76" y1="1511.45" x2="1643.1" y2="1964.39" gradientUnits="userSpaceOnUse">
<stop stop-color="#464446"/>
<stop offset="1" stop-color="#797979"/>
</linearGradient>
<linearGradient id="paint45_linear_82_1090" x1="2706.65" y1="1599.62" x2="2822.41" y2="2117.07" gradientUnits="userSpaceOnUse">
<stop stop-color="#464446"/>
<stop offset="1" stop-color="#797979"/>
</linearGradient>
<linearGradient id="paint46_linear_82_1090" x1="1983.65" y1="2438.62" x2="2099.41" y2="2956.07" gradientUnits="userSpaceOnUse">
<stop stop-color="#464446"/>
<stop offset="1" stop-color="#797979"/>
</linearGradient>
<linearGradient id="paint47_linear_82_1090" x1="1907.13" y1="3331.1" x2="2022.89" y2="3848.55" gradientUnits="userSpaceOnUse">
<stop stop-color="#464446"/>
<stop offset="1" stop-color="#797979"/>
</linearGradient>
<linearGradient id="paint48_linear_82_1090" x1="2587.45" y1="3614.65" x2="2703.21" y2="4132.1" gradientUnits="userSpaceOnUse">
<stop stop-color="#464446"/>
<stop offset="1" stop-color="#797979"/>
</linearGradient>
<linearGradient id="paint49_linear_82_1090" x1="3284.28" y1="3441.56" x2="3400.04" y2="3959.01" gradientUnits="userSpaceOnUse">
<stop stop-color="#464446"/>
<stop offset="1" stop-color="#797979"/>
</linearGradient>
<linearGradient id="paint50_linear_82_1090" x1="4140.9" y1="3506.26" x2="4256.67" y2="4023.71" gradientUnits="userSpaceOnUse">
<stop stop-color="#464446"/>
<stop offset="1" stop-color="#797979"/>
</linearGradient>
<linearGradient id="paint51_linear_82_1090" x1="3552.43" y1="1914.79" x2="3668.19" y2="2432.24" gradientUnits="userSpaceOnUse">
<stop stop-color="#464446"/>
<stop offset="1" stop-color="#797979"/>
</linearGradient>
<radialGradient id="paint52_radial_82_1090" cx="0" cy="0" r="1" gradientUnits="userSpaceOnUse" gradientTransform="translate(5773.38 3851.5) scale(164 38.5)">
<stop stop-color="white"/>
<stop offset="1" stop-color="#ABABAB"/>
</radialGradient>
<radialGradient id="paint53_radial_82_1090" cx="0" cy="0" r="1" gradientUnits="userSpaceOnUse" gradientTransform="translate(5063 2881.16) rotate(180) scale(34 164)">
<stop stop-color="white"/>
<stop offset="1" stop-color="#BDBDBD"/>
</radialGradient>
<radialGradient id="paint54_radial_82_1090" cx="0" cy="0" r="1" gradientUnits="userSpaceOnUse" gradientTransform="translate(5225.21 2917) scale(128)">
<stop stop-color="white"/>
<stop offset="1" stop-color="#9E9E9E"/>
</radialGradient>
<radialGradient id="paint55_radial_82_1090" cx="0" cy="0" r="1" gradientUnits="userSpaceOnUse" gradientTransform="translate(5481.21 2917) scale(128)">
<stop stop-color="white"/>
<stop offset="1" stop-color="#9E9E9E"/>
</radialGradient>
<radialGradient id="paint56_radial_82_1090" cx="0" cy="0" r="1" gradientUnits="userSpaceOnUse" gradientTransform="translate(5737.21 2917) rotate(180) scale(128)">
<stop stop-color="white"/>
<stop offset="1" stop-color="#9E9E9E"/>
</radialGradient>
<radialGradient id="paint57_radial_82_1090" cx="0" cy="0" r="1" gradientUnits="userSpaceOnUse" gradientTransform="translate(5737.21 3173) scale(128)">
<stop stop-color="white"/>
<stop offset="1" stop-color="#9E9E9E"/>
</radialGradient>
<radialGradient id="paint58_radial_82_1090" cx="0" cy="0" r="1" gradientUnits="userSpaceOnUse" gradientTransform="translate(5737.21 3429) scale(128)">
<stop stop-color="white"/>
<stop offset="1" stop-color="#9E9E9E"/>
</radialGradient>
<radialGradient id="paint59_radial_82_1090" cx="0" cy="0" r="1" gradientUnits="userSpaceOnUse" gradientTransform="translate(5737.21 3685) scale(128)">
<stop stop-color="white"/>
<stop offset="1" stop-color="#9E9E9E"/>
</radialGradient>
<radialGradient id="paint60_radial_82_1090" cx="0" cy="0" r="1" gradientUnits="userSpaceOnUse" gradientTransform="translate(5901.21 3291) rotate(180) scale(36 522)">
<stop stop-color="white"/>
<stop offset="1" stop-color="#BDBDBD"/>
</radialGradient>
<radialGradient id="paint61_radial_82_1090" cx="0" cy="0" r="1" gradientUnits="userSpaceOnUse" gradientTransform="translate(5517.21 2753) rotate(90) scale(36.0001 420)">
<stop stop-color="white"/>
<stop offset="1" stop-color="#BDBDBD"/>
</radialGradient>
</defs>
</svg>
